<svg id="Layer_1" xmlns="http://www.w3.org/2000/svg" viewBox="0 0 257 141"><style>.st0{fill:none}.st1{fill:#f7bc60}.st2{fill:#fff}.st3{fill:#a36b35}.st4{font-family:&amp;apos;MyriadPro-Regular&amp;apos;}.st5{font-size:16.5138702px}.st6{font-size:16.5137291px}.st7{font-size:16.5137501px}.st8{font-size:16.5137997px}.st9{font-size:16.5139809px}.st10{font-size:16.5139103px}.st11{font-size:16.5137405px}.st12{font-size:16.5136604px}.st13{font-size:16.5139008px}.st14{font-size:16.5138493px}.st15{font-size:16.51371px}.st16{font-size:16.5138607px}.st17{font-size:16.5136509px}.st18{fill:#9c683c}.st19{fill:#c8a485}.st20{opacity:.399994}.st21{fill:#b3865e}</style><pattern x="-226" y="219" width="69" height="69" patternUnits="userSpaceOnUse" id="Polka_Dot_Pattern" viewBox="2.125 -70.8964996 69 69.0000229" overflow="visible"><path class="st0" d="M2.125-70.896h69v69h-69z"/><path class="st1" d="M2.125-70.896h69v69h-69z"/><path class="st2" d="M61.772-71.653a.249.249 0 0 1-.025.19c-.053.1-.113.063-.165.128a.637.637 0 0 0-.08.362c-.169.058-.01.227-.015.35-.002.05-.04.105-.045.161a.77.77 0 0 0 .068.37c.097.198.268.413.435.544.19.149.365.572.609.631.177.042.383-.104.543-.143.18-.043.397.01.571-.052.222-.08.127-.337.288-.45.105-.075.287-.01.406-.051.2-.07.34-.263.376-.46.016-.082.01-.145.039-.22.038-.103.111-.161.09-.294-.01-.061-.052-.12-.064-.186-.022-.115.002-.224 0-.337-.003-.2.017-.38-.078-.55-.38-.688-1.236-.929-1.975-.79-.18.035-.286.127-.441.208-.17.088-.14.166-.319.223-.08.027-.216.124-.215.224.002.115.005.05.012.169-.02.01-.021-.005-.03-.025M54.105-71.653a.249.249 0 0 1-.025.19c-.053.1-.113.063-.165.128a.636.636 0 0 0-.08.362c-.168.058-.01.227-.015.35-.002.05-.04.105-.045.161a.77.77 0 0 0 .068.37c.097.198.268.413.435.544.19.149.365.572.609.631.177.042.384-.104.543-.143.18-.043.397.01.571-.052.222-.08.127-.337.288-.45.105-.075.287-.01.406-.051.2-.07.34-.263.376-.46.016-.082.01-.145.039-.22.038-.103.111-.161.09-.294-.01-.061-.052-.12-.064-.186-.022-.115.002-.224 0-.337-.003-.2.017-.38-.078-.55-.38-.688-1.236-.929-1.975-.79-.18.035-.286.127-.441.208-.17.088-.14.166-.319.223-.08.027-.216.124-.215.224.002.115.005.05.012.169-.02.01-.021-.005-.03-.025M46.439-71.653a.249.249 0 0 1-.026.19c-.053.1-.112.063-.165.128a.637.637 0 0 0-.08.362c-.168.058-.009.227-.014.35-.003.05-.04.105-.045.161a.77.77 0 0 0 .068.37c.097.198.268.413.435.544.19.149.365.572.608.631.177.042.384-.104.543-.143.18-.043.398.01.571-.052.222-.08.128-.337.289-.45.104-.075.287-.01.406-.051.2-.07.339-.263.376-.46.015-.082.01-.145.038-.22.039-.103.112-.161.09-.294-.01-.061-.051-.12-.064-.186-.022-.115.002-.224 0-.337-.002-.2.017-.38-.077-.55-.38-.688-1.237-.929-1.975-.79-.18.035-.287.127-.442.208-.17.088-.139.166-.318.223-.081.027-.216.124-.215.224.001.115.005.05.012.169-.02.01-.022-.005-.03-.025M38.772-71.653a.249.249 0 0 1-.025.19c-.053.1-.113.063-.165.128a.637.637 0 0 0-.08.362c-.169.058-.01.227-.015.35-.002.05-.04.105-.045.161a.77.77 0 0 0 .068.37c.097.198.268.413.435.544.19.149.365.572.609.631.177.042.383-.104.543-.143.18-.043.397.01.571-.052.222-.08.127-.337.288-.45.105-.075.287-.01.406-.051.2-.07.34-.263.376-.46.016-.082.01-.145.039-.22.038-.103.111-.161.09-.294-.01-.061-.052-.12-.064-.186-.022-.115.002-.224 0-.337-.003-.2.017-.38-.078-.55-.38-.688-1.236-.929-1.975-.79-.18.035-.286.127-.441.208-.17.088-.14.166-.319.223-.08.027-.216.124-.215.224.002.115.005.05.012.169-.02.01-.021-.005-.03-.025M31.105-71.653a.249.249 0 0 1-.025.19c-.053.1-.113.063-.165.128a.636.636 0 0 0-.08.362c-.168.058-.01.227-.015.35-.002.05-.04.105-.045.161a.77.77 0 0 0 .068.37c.097.198.268.413.435.544.19.149.365.572.609.631.177.042.384-.104.543-.143.18-.043.397.01.571-.052.222-.08.127-.337.288-.45.105-.075.287-.01.406-.051.2-.07.34-.263.376-.46.016-.082.01-.145.039-.22.038-.103.111-.161.09-.294-.01-.061-.052-.12-.064-.186-.022-.115.002-.224 0-.337-.003-.2.017-.38-.078-.55-.38-.688-1.236-.929-1.974-.79-.18.035-.287.127-.442.208-.17.088-.14.166-.319.223-.08.027-.216.124-.215.224.002.115.005.05.012.169-.02.01-.021-.005-.03-.025M23.439-71.653a.249.249 0 0 1-.026.19c-.053.1-.112.063-.165.128a.637.637 0 0 0-.08.362c-.168.058-.009.227-.014.35-.003.05-.04.105-.045.161a.77.77 0 0 0 .068.37c.097.198.268.413.435.544.19.149.365.572.608.631.177.042.384-.104.543-.143.18-.043.398.01.571-.052.222-.08.128-.337.289-.45.104-.075.287-.01.406-.051.2-.07.339-.263.376-.46.015-.082.01-.145.038-.22.039-.103.112-.161.09-.294-.01-.061-.051-.12-.064-.186-.022-.115.002-.224 0-.337-.002-.2.017-.38-.077-.55-.38-.688-1.237-.929-1.975-.79-.18.035-.287.127-.442.208-.17.088-.139.166-.318.223-.081.027-.216.124-.215.224.001.115.005.05.012.169-.02.01-.022-.005-.03-.025M15.773-71.653a.249.249 0 0 1-.026.19c-.053.1-.113.063-.165.128a.637.637 0 0 0-.08.362c-.169.058-.01.227-.015.35-.002.05-.04.105-.045.161a.77.77 0 0 0 .068.37c.097.198.268.413.435.544.19.149.365.572.609.631.177.042.383-.104.543-.143.18-.043.397.01.571-.052.222-.08.127-.337.288-.45.104-.075.287-.01.406-.051.2-.07.34-.263.376-.46.016-.082.01-.145.039-.22.038-.103.111-.161.09-.294-.01-.061-.052-.12-.064-.186-.022-.115.002-.224 0-.337-.003-.2.017-.38-.078-.55-.38-.688-1.236-.929-1.975-.79-.18.035-.286.127-.441.208-.17.088-.14.166-.319.223-.08.027-.216.124-.215.224.002.115.005.05.012.169-.02.01-.021-.005-.03-.025M8.105-71.653a.249.249 0 0 1-.025.19c-.053.1-.113.063-.165.128a.636.636 0 0 0-.08.362c-.168.058-.01.227-.015.35-.002.05-.04.105-.045.161a.77.77 0 0 0 .068.37c.097.198.268.413.435.544.19.149.365.572.609.631.177.042.384-.104.543-.143.18-.043.397.01.571-.052.222-.08.127-.337.288-.45.105-.075.287-.01.406-.051.2-.07.34-.263.376-.46.016-.082.01-.145.039-.22.038-.103.111-.161.09-.294-.01-.061-.052-.12-.064-.186-.022-.115.002-.224 0-.337-.003-.2.017-.38-.078-.55-.38-.688-1.236-.929-1.975-.79-.18.035-.286.127-.441.208-.17.088-.14.166-.319.223-.08.027-.216.124-.215.224.002.115.005.05.012.169-.02.01-.021-.005-.03-.025M.439-71.653a.247.247 0 0 1-.026.19c-.052.1-.113.063-.165.128a.632.632 0 0 0-.08.362c-.168.058-.01.227-.014.35-.003.05-.04.105-.045.161-.01.12.017.266.068.37.097.198.268.413.435.544.19.149.365.572.608.631.177.042.384-.104.543-.143.18-.043.398.01.571-.052.222-.08.128-.337.289-.45.104-.075.287-.01.406-.051.2-.07.34-.263.376-.46.015-.082.01-.145.038-.22.038-.103.112-.161.09-.294-.01-.061-.05-.12-.064-.186-.021-.115.002-.224 0-.337-.002-.2.017-.38-.077-.55-.38-.688-1.237-.929-1.975-.79-.18.035-.287.127-.442.208-.17.088-.139.166-.318.223-.081.027-.216.124-.215.224.002.115.005.05.012.169-.02.01-.022-.005-.03-.025"/><g><path class="st2" d="M69.439-71.653a.247.247 0 0 1-.026.19c-.052.1-.113.063-.165.128a.633.633 0 0 0-.08.362c-.168.058-.01.227-.014.35-.003.05-.04.105-.045.161-.01.12.017.266.068.37.097.198.268.413.435.544.19.149.365.572.608.631.177.042.384-.104.543-.143.18-.043.398.01.572-.052.221-.08.127-.337.288-.45.104-.075.287-.01.406-.051.2-.07.34-.263.376-.46.015-.082.01-.145.038-.22.038-.103.112-.161.09-.294-.01-.061-.05-.12-.064-.186-.021-.115.002-.224 0-.337-.002-.2.017-.38-.077-.55-.38-.688-1.237-.929-1.975-.79-.18.035-.287.127-.442.208-.17.088-.139.166-.318.223-.081.027-.216.124-.215.224.002.115.005.05.012.169-.02.01-.022-.005-.03-.025"/></g><path class="st2" d="M.495-71.653a.247.247 0 0 1-.026.19c-.052.1-.113.063-.165.128a.632.632 0 0 0-.079.362c-.169.058-.01.227-.015.35-.002.05-.04.105-.045.161-.01.12.017.266.068.37.097.198.268.413.435.544.19.149.365.572.608.631.178.042.384-.104.543-.143.18-.043.398.01.572-.052.221-.08.127-.337.288-.45.104-.075.287-.01.406-.051.2-.07.34-.263.376-.46.016-.082.01-.145.039-.22.038-.103.11-.161.09-.294-.01-.061-.051-.12-.065-.186-.021-.115.002-.224 0-.337-.002-.2.017-.38-.077-.55-.38-.688-1.237-.929-1.975-.79-.18.035-.286.127-.442.208-.17.088-.138.166-.318.223-.081.027-.215.124-.215.224.002.115.005.05.012.169-.02.01-.022-.005-.03-.025"/><g><path class="st2" d="M69.439-64.001a.25.25 0 0 1-.026.19c-.053.101-.112.063-.165.128a.636.636 0 0 0-.08.363c-.168.057-.009.226-.014.35-.003.05-.04.105-.045.16a.77.77 0 0 0 .068.37c.097.199.268.414.435.544.19.149.365.573.608.631.177.042.384-.104.543-.142.18-.043.398.01.572-.053.221-.08.127-.337.288-.45.104-.074.287-.01.406-.05.2-.07.339-.264.376-.46.015-.083.01-.145.038-.222.039-.102.112-.16.09-.293-.01-.061-.051-.12-.064-.186-.022-.114.002-.224 0-.337-.002-.2.017-.379-.077-.55-.38-.687-1.237-.929-1.975-.789-.18.034-.287.126-.442.207-.17.088-.139.166-.318.224-.081.026-.216.124-.215.223.001.116.005.051.012.17-.02.01-.022-.006-.03-.026M61.778-64.001a.249.249 0 0 1-.026.19c-.052.101-.112.063-.165.128a.636.636 0 0 0-.079.363c-.169.057-.009.226-.015.35-.002.05-.04.105-.045.16a.77.77 0 0 0 .068.37c.097.199.268.414.435.544.19.149.365.573.609.631.177.042.383-.104.543-.142.18-.043.397.01.57-.053.223-.08.128-.337.289-.45.104-.074.287-.01.406-.05.2-.07.339-.264.376-.46.016-.083.01-.145.039-.222.038-.102.111-.16.09-.293-.01-.061-.052-.12-.064-.186-.022-.114.002-.224 0-.337-.003-.2.017-.379-.078-.55-.38-.687-1.236-.929-1.975-.789-.18.034-.286.126-.442.207-.17.088-.138.166-.318.224-.081.026-.216.124-.215.223.002.116.005.051.012.17-.02.01-.022-.006-.03-.026M54.118-64.001a.25.25 0 0 1-.026.19c-.052.101-.112.063-.165.128a.636.636 0 0 0-.079.363c-.169.057-.01.226-.015.35-.002.05-.04.105-.045.16a.77.77 0 0 0 .068.37c.097.199.268.414.435.544.19.149.365.573.608.631.178.042.384-.104.543-.142.18-.043.398.01.572-.053.221-.08.127-.337.288-.45.104-.074.287-.01.406-.05.2-.07.339-.264.376-.46.016-.083.01-.145.039-.222.038-.102.11-.16.09-.293-.01-.061-.052-.12-.065-.186-.022-.114.002-.224 0-.337-.002-.2.018-.379-.077-.55-.38-.687-1.237-.929-1.975-.789-.18.034-.286.126-.442.207-.17.088-.138.166-.318.224-.081.026-.216.124-.215.223.002.116.005.051.012.17-.02.01-.022-.006-.03-.026M46.458-64.001a.249.249 0 0 1-.026.19c-.053.101-.113.063-.165.128a.636.636 0 0 0-.08.363c-.168.057-.009.226-.015.35-.002.05-.04.105-.045.16a.77.77 0 0 0 .068.37c.097.199.268.414.435.544.19.149.365.573.609.631.177.042.384-.104.543-.142.18-.043.397.01.571-.053.222-.08.127-.337.288-.45.105-.074.287-.01.406-.05.2-.07.34-.264.376-.46.016-.083.01-.145.039-.222.038-.102.111-.16.09-.293-.01-.061-.052-.12-.064-.186-.022-.114.002-.224 0-.337-.003-.2.017-.379-.078-.55-.38-.687-1.236-.929-1.974-.789-.18.034-.287.126-.442.207-.17.088-.139.166-.319.224-.08.026-.216.124-.215.223.002.116.005.051.012.17-.02.01-.021-.006-.03-.026M38.797-64.001a.25.25 0 0 1-.026.19c-.052.101-.112.063-.165.128a.636.636 0 0 0-.079.363c-.169.057-.009.226-.015.35-.002.05-.04.105-.045.16a.77.77 0 0 0 .068.37c.097.199.268.414.435.544.19.149.365.573.609.631.177.042.383-.104.543-.142.18-.043.397.01.57-.053.223-.08.128-.337.289-.45.104-.074.287-.01.406-.05.2-.07.34-.264.376-.46.016-.083.01-.145.039-.222.038-.102.111-.16.09-.293-.01-.061-.052-.12-.064-.186-.022-.114.002-.224 0-.337-.003-.2.017-.379-.078-.55-.38-.687-1.236-.929-1.975-.789-.18.034-.286.126-.441.207-.17.088-.14.166-.319.224-.08.026-.216.124-.215.223.002.116.005.051.012.17-.02.01-.021-.006-.03-.026M31.137-64.001a.249.249 0 0 1-.026.19c-.053.101-.112.063-.165.128a.636.636 0 0 0-.08.363c-.168.057-.009.226-.014.35-.003.05-.041.105-.045.16a.77.77 0 0 0 .068.37c.097.199.268.414.435.544.19.149.364.573.608.631.177.042.384-.104.543-.142.18-.043.397.01.571-.053.222-.08.128-.337.288-.45.105-.074.287-.01.407-.05.2-.07.338-.264.376-.46.015-.083.01-.145.038-.222.039-.102.111-.16.09-.293-.01-.061-.051-.12-.064-.186-.022-.114.002-.224 0-.337-.002-.2.017-.379-.078-.55-.38-.687-1.236-.929-1.974-.789-.18.034-.287.126-.442.207-.17.088-.139.166-.319.224-.08.026-.215.124-.214.223.001.116.005.051.011.17-.02.01-.021-.006-.03-.026M23.477-64.001a.25.25 0 0 1-.026.19c-.053.101-.113.063-.165.128a.636.636 0 0 0-.08.363c-.168.057-.009.226-.015.35-.002.05-.04.105-.045.16a.77.77 0 0 0 .068.37c.098.199.268.414.435.544.19.149.365.573.609.631.177.042.384-.104.543-.142.18-.043.397.01.571-.053.222-.08.128-.337.288-.45.105-.074.287-.01.406-.05.2-.07.34-.264.376-.46.016-.083.01-.145.039-.222.039-.102.111-.16.09-.293-.01-.061-.051-.12-.064-.186-.022-.114.002-.224 0-.337-.003-.2.017-.379-.078-.55-.38-.687-1.236-.929-1.974-.789-.18.034-.287.126-.442.207-.17.088-.139.166-.319.224-.08.026-.215.124-.215.223.002.116.005.051.012.17-.02.01-.021-.006-.03-.026M15.816-64.001a.249.249 0 0 1-.026.19c-.053.101-.112.063-.165.128a.636.636 0 0 0-.08.363c-.168.057-.008.226-.014.35-.003.05-.04.105-.045.16a.77.77 0 0 0 .068.37c.097.199.268.414.435.544.19.149.365.573.608.631.177.042.384-.104.543-.142.18-.043.398.01.571-.053.222-.08.128-.337.289-.45.104-.074.287-.01.406-.05.2-.07.339-.264.376-.46.015-.083.01-.145.038-.222.039-.102.112-.16.09-.293-.01-.061-.051-.12-.064-.186-.022-.114.002-.224 0-.337-.002-.2.017-.379-.077-.55-.38-.687-1.237-.929-1.975-.789-.18.034-.287.126-.442.207-.17.088-.139.166-.318.224-.081.026-.216.124-.215.223.001.116.005.051.012.17-.02.01-.022-.006-.03-.026M8.156-64.001a.249.249 0 0 1-.026.19c-.053.101-.112.063-.165.128a.636.636 0 0 0-.08.363c-.168.057-.009.226-.014.35-.003.05-.04.105-.045.16a.77.77 0 0 0 .068.37c.097.199.268.414.435.544.19.149.364.573.608.631.177.042.384-.104.543-.142.18-.043.397.01.571-.053.222-.08.128-.337.288-.45.105-.074.288-.01.407-.05.2-.07.339-.264.376-.46.015-.083.01-.145.038-.222.039-.102.111-.16.09-.293-.01-.061-.051-.12-.064-.186-.022-.114.002-.224 0-.337-.002-.2.017-.379-.078-.55-.38-.687-1.236-.929-1.974-.789-.18.034-.287.126-.442.207-.17.088-.139.166-.318.224-.082.026-.216.124-.215.223.001.116.005.051.011.17-.02.01-.021-.006-.03-.026M.495-64.001a.249.249 0 0 1-.026.19c-.052.101-.112.063-.165.128a.636.636 0 0 0-.079.363c-.169.057-.01.226-.015.35-.002.05-.04.105-.045.16a.77.77 0 0 0 .068.37c.097.199.268.414.435.544.19.149.365.573.608.631.178.042.384-.104.543-.142.18-.043.398.01.572-.053.221-.08.127-.337.288-.45.104-.074.287-.01.406-.05.2-.07.339-.264.376-.46.016-.083.01-.145.039-.222.038-.102.11-.16.09-.293-.01-.061-.052-.12-.065-.186-.022-.114.002-.224 0-.337-.002-.2.017-.379-.077-.55-.38-.687-1.237-.929-1.975-.789-.18.034-.286.126-.442.207-.17.088-.138.166-.318.224-.081.026-.216.124-.215.223.002.116.005.051.012.17-.02.01-.022-.006-.03-.026"/><g><path class="st2" d="M69.439-56.348a.25.25 0 0 1-.026.19c-.053.101-.112.063-.165.129a.637.637 0 0 0-.08.362c-.168.058-.009.227-.014.35-.003.05-.04.105-.045.16a.77.77 0 0 0 .068.37c.097.2.268.414.435.545.19.148.365.572.608.63.177.043.384-.104.543-.142.18-.043.398.01.572-.053.221-.079.127-.337.288-.45.104-.074.287-.01.406-.05.2-.07.339-.263.376-.46.015-.083.01-.145.038-.221.039-.103.112-.16.09-.293-.01-.062-.051-.12-.064-.187-.022-.114.002-.223 0-.337-.002-.2.017-.379-.077-.55-.38-.687-1.237-.928-1.975-.789-.18.035-.287.126-.442.207-.17.088-.139.166-.318.224-.081.026-.216.124-.215.224.001.115.005.05.012.169-.02.01-.022-.005-.03-.026M61.778-56.348a.249.249 0 0 1-.026.19c-.052.101-.112.063-.165.129a.636.636 0 0 0-.079.362c-.169.058-.009.227-.015.35-.002.05-.04.105-.045.16-.01.12.017.266.068.37.097.2.268.414.435.545.19.148.365.572.609.63.177.043.383-.104.543-.142.18-.043.397.01.57-.053.223-.079.128-.337.289-.45.104-.074.287-.01.406-.05.2-.07.339-.263.376-.46.016-.083.01-.145.039-.221.038-.103.111-.16.09-.293-.01-.062-.052-.12-.064-.187-.022-.114.002-.223 0-.337-.003-.2.017-.379-.078-.55-.38-.687-1.236-.928-1.975-.789-.18.035-.286.126-.442.207-.17.088-.138.167-.318.224-.081.026-.216.124-.215.224.002.115.005.05.012.169-.02.01-.022-.005-.03-.026M54.118-56.348a.25.25 0 0 1-.026.19c-.052.101-.112.063-.165.129a.637.637 0 0 0-.079.362c-.169.058-.01.227-.015.35-.002.05-.04.105-.045.16a.77.77 0 0 0 .068.37c.097.2.268.414.435.545.19.148.365.572.608.63.178.043.384-.104.543-.142.18-.043.398.01.572-.053.221-.079.127-.337.288-.45.104-.074.287-.01.406-.05.2-.07.339-.263.376-.46.016-.083.01-.145.039-.221.038-.103.11-.16.09-.293-.01-.062-.052-.12-.065-.187-.022-.114.002-.223 0-.337-.002-.2.018-.379-.077-.55-.38-.687-1.237-.928-1.975-.789-.18.035-.286.126-.442.207-.17.088-.138.167-.318.224-.081.026-.216.124-.215.224.002.115.005.05.012.169-.02.01-.022-.005-.03-.026M46.458-56.348a.249.249 0 0 1-.026.19c-.053.101-.113.063-.165.129a.636.636 0 0 0-.08.362c-.168.058-.009.227-.015.35-.002.05-.04.105-.045.16-.01.12.018.266.068.37.097.2.268.414.435.545.19.148.365.572.609.63.177.043.384-.104.543-.142.18-.043.397.01.571-.053.222-.079.127-.337.288-.45.105-.074.287-.01.406-.05.2-.07.34-.263.376-.46.016-.083.01-.145.039-.221.038-.103.111-.16.09-.293-.01-.062-.052-.12-.064-.187-.022-.114.002-.223 0-.337-.003-.2.017-.379-.078-.55-.38-.687-1.236-.928-1.974-.789-.18.035-.287.126-.442.207-.17.088-.139.167-.319.224-.08.026-.216.124-.215.224.002.115.005.05.012.169-.02.01-.021-.005-.03-.026M38.797-56.348a.25.25 0 0 1-.026.19c-.052.101-.112.063-.165.129a.637.637 0 0 0-.079.362c-.169.058-.009.227-.015.35-.002.05-.04.105-.045.16a.77.77 0 0 0 .068.37c.097.2.268.414.435.545.19.148.365.572.609.63.177.043.383-.104.543-.142.18-.043.397.01.57-.053.223-.079.128-.337.289-.45.104-.074.287-.01.406-.05.2-.07.34-.263.376-.46.016-.083.01-.145.039-.221.038-.103.111-.16.09-.293-.01-.062-.052-.12-.064-.187-.022-.114.002-.223 0-.337-.003-.2.017-.379-.078-.55-.38-.687-1.236-.928-1.975-.789-.18.035-.286.126-.441.207-.17.088-.14.167-.319.224-.08.026-.216.124-.215.224.002.115.005.05.012.169-.02.01-.021-.005-.03-.026M31.137-56.348a.249.249 0 0 1-.026.19c-.053.101-.112.063-.165.129a.636.636 0 0 0-.08.362c-.168.058-.009.227-.014.35-.003.05-.041.105-.045.16-.01.12.017.266.068.37.097.2.268.414.435.545.19.148.364.572.608.63.177.043.384-.104.543-.142.18-.043.397.01.571-.053.222-.079.128-.337.288-.45.105-.074.287-.01.407-.05.2-.07.338-.263.376-.46.015-.083.01-.145.038-.221.039-.103.111-.16.09-.293-.01-.062-.051-.12-.064-.187-.022-.114.002-.223 0-.337-.002-.2.017-.379-.078-.55-.38-.687-1.236-.928-1.974-.789-.18.035-.287.126-.442.207-.17.088-.139.167-.319.224-.08.026-.215.124-.214.224.001.115.005.05.011.169-.02.01-.021-.005-.03-.026M23.477-56.348a.25.25 0 0 1-.026.19c-.053.101-.113.063-.165.129a.637.637 0 0 0-.08.362c-.168.058-.009.227-.015.35-.002.05-.04.105-.045.16a.77.77 0 0 0 .068.37c.098.2.268.414.435.545.19.148.365.572.609.63.177.043.384-.104.543-.142.18-.043.397.01.571-.053.222-.079.128-.337.288-.45.105-.074.287-.01.406-.05.2-.07.34-.263.376-.46.016-.083.01-.145.039-.221.039-.103.111-.16.09-.293-.01-.062-.051-.12-.064-.187-.022-.114.002-.223 0-.337-.003-.2.017-.379-.078-.55-.38-.687-1.236-.928-1.974-.789-.18.035-.287.126-.442.207-.17.088-.139.167-.319.224-.08.026-.215.124-.215.224.002.115.005.05.012.169-.02.01-.021-.005-.03-.026M15.816-56.348a.249.249 0 0 1-.026.19c-.053.101-.112.063-.165.129a.636.636 0 0 0-.08.362c-.168.058-.008.227-.014.35-.003.05-.04.105-.045.16-.01.12.017.266.068.37.097.2.268.414.435.545.19.148.365.572.608.63.177.043.384-.104.543-.142.18-.043.398.01.571-.053.222-.079.128-.337.289-.45.104-.074.287-.01.406-.05.2-.07.339-.263.376-.46.015-.083.01-.145.038-.221.039-.103.112-.16.09-.293-.01-.062-.051-.12-.064-.187-.022-.114.002-.223 0-.337-.002-.2.017-.379-.077-.55-.38-.687-1.237-.928-1.975-.789-.18.035-.287.126-.442.207-.17.088-.139.167-.318.224-.081.026-.216.124-.215.224.001.115.005.05.012.169-.02.01-.022-.005-.03-.026M8.156-56.348a.249.249 0 0 1-.026.19c-.053.101-.112.063-.165.129a.636.636 0 0 0-.08.362c-.168.058-.009.227-.014.35-.003.05-.04.105-.045.16a.77.77 0 0 0 .068.37c.097.2.268.414.435.545.19.148.364.572.608.63.177.043.384-.104.543-.142.18-.043.397.01.571-.053.222-.079.128-.337.288-.45.105-.074.288-.01.407-.05.2-.07.339-.263.376-.46.015-.083.01-.145.038-.221.039-.103.111-.16.09-.293-.01-.062-.051-.12-.064-.187-.022-.114.002-.223 0-.337-.002-.2.017-.379-.078-.55-.38-.687-1.236-.928-1.974-.789-.18.035-.287.126-.442.207-.17.088-.139.166-.318.224-.082.026-.216.124-.215.224.001.115.005.05.011.169-.02.01-.021-.005-.03-.026M.495-56.348a.249.249 0 0 1-.026.19c-.052.101-.112.063-.165.129a.636.636 0 0 0-.079.362c-.169.058-.01.227-.015.35-.002.05-.04.105-.045.16a.77.77 0 0 0 .068.37c.097.2.268.414.435.545.19.148.365.572.608.63.178.043.384-.104.543-.142.18-.043.398.01.572-.053.221-.079.127-.337.288-.45.104-.074.287-.01.406-.05.2-.07.339-.263.376-.46.016-.083.01-.145.039-.221.038-.103.11-.16.09-.293-.01-.062-.052-.12-.065-.187-.022-.114.002-.223 0-.337-.002-.2.017-.379-.077-.55-.38-.687-1.237-.928-1.975-.789-.18.035-.286.126-.442.207-.17.088-.138.166-.318.224-.081.026-.216.124-.215.224.002.115.005.05.012.169-.02.01-.022-.005-.03-.026"/></g><g><path class="st2" d="M69.439-48.695a.249.249 0 0 1-.026.19c-.053.1-.112.063-.165.128a.637.637 0 0 0-.08.362c-.168.058-.009.227-.014.35-.003.05-.04.105-.045.161a.77.77 0 0 0 .068.37c.097.198.268.413.435.544.19.149.365.572.608.631.177.042.384-.104.543-.143.18-.043.398.01.572-.052.221-.08.127-.337.288-.45.104-.075.287-.01.406-.051.2-.07.339-.263.376-.46.015-.082.01-.145.038-.22.039-.103.112-.161.09-.294-.01-.061-.051-.12-.064-.186-.022-.115.002-.224 0-.337-.002-.2.017-.38-.077-.55-.38-.688-1.237-.929-1.975-.79-.18.035-.287.127-.442.208-.17.088-.139.166-.318.223-.081.027-.216.124-.215.224.001.115.005.05.012.169-.02.01-.022-.005-.03-.025M61.778-48.695a.249.249 0 0 1-.026.19c-.052.1-.112.063-.165.128a.636.636 0 0 0-.079.362c-.169.058-.009.227-.015.35-.002.05-.04.105-.045.161-.01.12.017.266.068.37.097.198.268.413.435.544.19.149.365.572.609.631.177.042.383-.104.543-.143.18-.043.397.01.57-.052.223-.08.128-.337.289-.45.104-.075.287-.01.406-.051.2-.07.339-.263.376-.46.016-.082.01-.145.039-.22.038-.103.111-.161.09-.294-.01-.061-.052-.12-.064-.186-.022-.115.002-.224 0-.337-.003-.2.017-.38-.078-.55-.38-.688-1.236-.929-1.975-.79-.18.035-.286.127-.442.208-.17.088-.138.166-.318.223-.081.027-.216.124-.215.224.002.115.005.05.012.169-.02.01-.022-.005-.03-.025M54.118-48.695a.249.249 0 0 1-.026.19c-.052.1-.112.063-.165.128a.637.637 0 0 0-.079.362c-.169.058-.01.227-.015.35-.002.05-.04.105-.045.161a.77.77 0 0 0 .068.37c.097.198.268.413.435.544.19.149.365.572.608.631.178.042.384-.104.543-.143.18-.043.398.01.572-.052.221-.08.127-.337.288-.45.104-.075.287-.01.406-.051.2-.07.339-.263.376-.46.016-.082.01-.145.039-.22.038-.103.11-.161.09-.294-.01-.061-.052-.12-.065-.186-.022-.115.002-.224 0-.337-.002-.2.018-.38-.077-.55-.38-.688-1.237-.929-1.975-.79-.18.035-.286.127-.442.208-.17.088-.138.166-.318.223-.081.027-.216.124-.215.224.002.115.005.05.012.169-.02.01-.022-.005-.03-.025M46.458-48.695a.249.249 0 0 1-.026.19c-.053.1-.113.063-.165.128a.636.636 0 0 0-.08.362c-.168.058-.009.227-.015.35-.002.05-.04.105-.045.161-.01.12.018.266.068.37.097.198.268.413.435.544.19.149.365.572.609.631.177.042.384-.104.543-.143.18-.043.397.01.571-.052.222-.08.127-.337.288-.45.105-.075.287-.01.406-.051.2-.07.34-.263.376-.46.016-.082.01-.145.039-.22.038-.103.111-.161.09-.294-.01-.061-.052-.12-.064-.186-.022-.115.002-.224 0-.337-.003-.2.017-.38-.078-.55-.38-.688-1.236-.929-1.974-.79-.18.035-.287.127-.442.208-.17.088-.139.166-.319.223-.08.027-.216.124-.215.224.002.115.005.05.012.169-.02.01-.021-.005-.03-.025M38.797-48.695a.249.249 0 0 1-.026.19c-.052.1-.112.063-.165.128a.637.637 0 0 0-.079.362c-.169.058-.009.227-.015.35-.002.05-.04.105-.045.161a.77.77 0 0 0 .068.37c.097.198.268.413.435.544.19.149.365.572.609.631.177.042.383-.104.543-.143.18-.043.397.01.57-.052.223-.08.128-.337.289-.45.104-.075.287-.01.406-.051.2-.07.34-.263.376-.46.016-.082.01-.145.039-.22.038-.103.111-.161.09-.294-.01-.061-.052-.12-.064-.186-.022-.115.002-.224 0-.337-.003-.2.017-.38-.078-.55-.38-.688-1.236-.929-1.975-.79-.18.035-.286.127-.442.208-.17.088-.138.166-.318.223-.08.027-.216.124-.215.224.002.115.005.05.012.169-.02.01-.021-.005-.03-.025M31.137-48.695a.249.249 0 0 1-.026.19c-.053.1-.112.063-.165.128a.636.636 0 0 0-.08.362c-.168.058-.009.227-.014.35-.003.05-.041.105-.045.161-.01.12.017.266.068.37.097.198.268.413.435.544.19.149.364.572.608.631.177.042.384-.104.543-.143.18-.043.397.01.571-.052.222-.08.128-.337.288-.45.105-.075.287-.01.407-.051.2-.07.338-.263.376-.46.015-.082.01-.145.038-.22.039-.103.111-.161.09-.294-.01-.061-.051-.12-.064-.186-.022-.115.002-.224 0-.337-.002-.2.017-.38-.078-.55-.38-.688-1.236-.929-1.974-.79-.18.035-.287.127-.442.208-.17.088-.139.166-.319.223-.08.027-.215.124-.214.224.001.115.005.05.011.169-.02.01-.021-.005-.03-.025M23.477-48.695a.249.249 0 0 1-.026.19c-.053.1-.113.063-.165.128a.637.637 0 0 0-.08.362c-.168.058-.009.227-.015.35-.002.05-.04.105-.045.161a.77.77 0 0 0 .068.37c.098.198.268.413.435.544.19.149.365.572.609.631.177.042.384-.104.543-.143.18-.043.397.01.571-.052.222-.08.128-.337.288-.45.105-.075.287-.01.406-.051.2-.07.34-.263.376-.46.016-.082.01-.145.039-.22.039-.103.111-.161.09-.294-.01-.061-.051-.12-.064-.186-.022-.115.002-.224 0-.337-.003-.2.017-.38-.078-.55-.38-.688-1.236-.929-1.974-.79-.18.035-.287.127-.442.208-.17.088-.139.166-.319.223-.08.027-.215.124-.215.224.002.115.005.05.012.169-.02.01-.021-.005-.03-.025M15.816-48.695a.249.249 0 0 1-.026.19c-.053.1-.112.063-.165.128a.636.636 0 0 0-.08.362c-.168.058-.008.227-.014.35-.003.05-.04.105-.045.161-.01.12.017.266.068.37.097.198.268.413.435.544.19.149.365.572.608.631.177.042.384-.104.543-.143.18-.043.398.01.571-.052.222-.08.128-.337.289-.45.104-.075.287-.01.406-.051.2-.07.339-.263.376-.46.015-.082.01-.145.038-.22.039-.103.112-.161.09-.294-.01-.061-.051-.12-.064-.186-.022-.115.002-.224 0-.337-.002-.2.017-.38-.077-.55-.38-.688-1.237-.929-1.975-.79-.18.035-.287.127-.442.208-.17.088-.139.166-.318.223-.081.027-.216.124-.215.224.001.115.005.05.012.169-.02.01-.022-.005-.03-.025M8.156-48.695a.249.249 0 0 1-.026.19c-.053.1-.112.063-.165.128a.636.636 0 0 0-.08.362c-.168.058-.009.227-.014.35-.003.05-.04.105-.045.161a.77.77 0 0 0 .068.37c.097.198.268.413.435.544.19.149.364.572.608.631.177.042.384-.104.543-.143.18-.043.397.01.571-.052.222-.08.128-.337.288-.45.105-.075.288-.01.407-.051.2-.07.339-.263.376-.46.015-.082.01-.145.038-.22.039-.103.111-.161.09-.294-.01-.061-.051-.12-.064-.186-.022-.115.002-.224 0-.337-.002-.2.017-.38-.078-.55-.38-.688-1.236-.929-1.974-.79-.18.035-.287.127-.442.208-.17.088-.139.166-.318.223-.082.027-.216.124-.215.224.001.115.005.05.011.169-.02.01-.021-.005-.03-.025M.495-48.695a.249.249 0 0 1-.026.19c-.052.1-.112.063-.165.128a.636.636 0 0 0-.079.362c-.169.058-.01.227-.015.35-.002.05-.04.105-.045.161a.77.77 0 0 0 .068.37c.097.198.268.413.435.544.19.149.365.572.608.631.178.042.384-.104.543-.143.18-.043.398.01.572-.052.221-.08.127-.337.288-.45.104-.075.287-.01.406-.051.2-.07.339-.263.376-.46.016-.082.01-.145.039-.22.038-.103.11-.161.09-.294-.01-.061-.052-.12-.065-.186-.022-.115.002-.224 0-.337-.002-.2.017-.38-.077-.55-.38-.688-1.237-.929-1.975-.79-.18.035-.286.127-.442.208-.17.088-.138.166-.318.223-.081.027-.216.124-.215.224.002.115.005.05.012.169-.02.01-.022-.005-.03-.025"/></g><g><path class="st2" d="M69.439-41.042a.249.249 0 0 1-.026.19c-.053.101-.112.063-.165.128a.636.636 0 0 0-.08.363c-.168.057-.009.226-.014.35-.003.05-.04.105-.045.16a.77.77 0 0 0 .068.37c.097.199.268.414.435.544.19.149.365.573.608.631.177.042.384-.104.543-.142.18-.043.398.01.572-.053.221-.08.127-.337.288-.45.104-.074.287-.01.406-.051.2-.07.339-.263.376-.46.015-.082.01-.144.038-.22.039-.103.112-.16.09-.294-.01-.061-.051-.12-.064-.186-.022-.114.002-.224 0-.337-.002-.2.017-.379-.077-.55-.38-.687-1.237-.929-1.975-.789-.18.034-.287.126-.442.207-.17.088-.139.166-.318.224-.081.026-.216.124-.215.223.001.116.005.051.012.17-.02.01-.022-.006-.03-.026M61.778-41.042a.248.248 0 0 1-.026.19c-.052.101-.112.063-.165.128a.636.636 0 0 0-.079.363c-.169.057-.009.226-.015.35-.002.05-.04.105-.045.16a.77.77 0 0 0 .068.37c.097.199.268.414.435.544.19.149.365.573.609.631.177.042.383-.104.543-.142.18-.043.397.01.57-.053.223-.08.128-.337.289-.45.104-.074.287-.01.406-.051.2-.07.339-.263.376-.46.016-.082.01-.144.039-.22.038-.103.111-.16.09-.294-.01-.061-.052-.12-.064-.186-.022-.114.002-.224 0-.337-.003-.2.017-.379-.078-.55-.38-.687-1.236-.929-1.975-.789-.18.034-.286.126-.442.207-.17.088-.138.166-.318.224-.081.026-.216.124-.215.223.002.116.005.051.012.17-.02.01-.022-.006-.03-.026M54.118-41.042a.249.249 0 0 1-.026.19c-.052.101-.112.063-.165.128a.636.636 0 0 0-.079.363c-.169.057-.01.226-.015.35-.002.05-.04.105-.045.16a.77.77 0 0 0 .068.37c.097.199.268.414.435.544.19.149.365.573.608.631.178.042.384-.104.543-.142.18-.043.398.01.572-.053.221-.08.127-.337.288-.45.104-.074.287-.01.406-.051.2-.07.339-.263.376-.46.016-.082.01-.144.039-.22.038-.103.11-.16.09-.294-.01-.061-.052-.12-.065-.186-.022-.114.002-.224 0-.337-.002-.2.018-.379-.077-.55-.38-.687-1.237-.929-1.975-.789-.18.034-.286.126-.442.207-.17.088-.138.166-.318.224-.081.026-.216.124-.215.223.002.116.005.051.012.17-.02.01-.022-.006-.03-.026M46.458-41.042a.248.248 0 0 1-.026.19c-.053.101-.113.063-.165.128a.636.636 0 0 0-.08.363c-.168.057-.009.226-.015.35-.002.05-.04.105-.045.16a.77.77 0 0 0 .068.37c.097.199.268.414.435.544.19.149.365.573.609.631.177.042.384-.104.543-.142.18-.043.397.01.571-.053.222-.08.127-.337.288-.45.105-.074.287-.01.406-.051.2-.07.34-.263.376-.46.016-.082.01-.144.039-.22.038-.103.111-.16.09-.294-.01-.061-.052-.12-.064-.186-.022-.114.002-.224 0-.337-.003-.2.017-.379-.078-.55-.38-.687-1.236-.929-1.974-.789-.18.034-.287.126-.442.207-.17.088-.139.166-.319.224-.08.026-.216.124-.215.223.002.116.005.051.012.17-.02.01-.021-.006-.03-.026M38.797-41.042a.249.249 0 0 1-.026.19c-.052.101-.112.063-.165.128a.636.636 0 0 0-.079.363c-.169.057-.009.226-.015.35-.002.05-.04.105-.045.16a.77.77 0 0 0 .068.37c.097.199.268.414.435.544.19.149.365.573.609.631.177.042.383-.104.543-.142.18-.043.397.01.57-.053.223-.08.128-.337.289-.45.104-.074.287-.01.406-.051.2-.07.34-.263.376-.46.016-.082.01-.144.039-.22.038-.103.111-.16.09-.294-.01-.061-.052-.12-.064-.186-.022-.114.002-.224 0-.337-.003-.2.017-.379-.078-.55-.38-.687-1.236-.929-1.975-.789-.18.034-.286.126-.441.207-.17.088-.14.166-.319.224-.08.026-.216.124-.215.223.002.116.005.051.012.17-.02.01-.021-.006-.03-.026M31.137-41.042a.248.248 0 0 1-.026.19c-.053.101-.112.063-.165.128a.636.636 0 0 0-.08.363c-.168.057-.009.226-.014.35-.003.05-.041.105-.045.16a.77.77 0 0 0 .068.37c.097.199.268.414.435.544.19.149.364.573.608.631.177.042.384-.104.543-.142.18-.043.397.01.571-.053.222-.08.128-.337.288-.45.105-.074.287-.01.407-.051.2-.07.338-.263.376-.46.015-.082.01-.144.038-.22.039-.103.111-.16.09-.294-.01-.061-.051-.12-.064-.186-.022-.114.002-.224 0-.337-.002-.2.017-.379-.078-.55-.38-.687-1.236-.929-1.974-.789-.18.034-.287.126-.442.207-.17.088-.139.166-.319.224-.08.026-.215.124-.214.223.001.116.005.051.011.17-.02.01-.021-.006-.03-.026M23.477-41.042a.249.249 0 0 1-.026.19c-.053.101-.113.063-.165.128a.636.636 0 0 0-.08.363c-.168.057-.009.226-.015.35-.002.05-.04.105-.045.16a.77.77 0 0 0 .068.37c.098.199.268.414.435.544.19.149.365.573.609.631.177.042.384-.104.543-.142.18-.043.397.01.571-.053.222-.08.128-.337.288-.45.105-.074.287-.01.406-.051.2-.07.34-.263.376-.46.016-.082.01-.144.039-.22.039-.103.111-.16.09-.294-.01-.061-.051-.12-.064-.186-.022-.114.002-.224 0-.337-.003-.2.017-.379-.078-.55-.38-.687-1.236-.929-1.974-.789-.18.034-.287.126-.442.207-.17.088-.139.166-.319.224-.08.026-.215.124-.215.223.002.116.005.051.012.17-.02.01-.021-.006-.03-.026M15.816-41.042a.248.248 0 0 1-.026.19c-.053.101-.112.063-.165.128a.636.636 0 0 0-.08.363c-.168.057-.008.226-.014.35-.003.05-.04.105-.045.16a.77.77 0 0 0 .068.37c.097.199.268.414.435.544.19.149.365.573.608.631.177.042.384-.104.543-.142.18-.043.398.01.571-.053.222-.08.128-.337.289-.45.104-.074.287-.01.406-.051.2-.07.339-.263.376-.46.015-.082.01-.144.038-.22.039-.103.112-.16.09-.294-.01-.061-.051-.12-.064-.186-.022-.114.002-.224 0-.337-.002-.2.017-.379-.077-.55-.38-.687-1.237-.929-1.975-.789-.18.034-.287.126-.442.207-.17.088-.139.166-.318.224-.081.026-.216.124-.215.223.001.116.005.051.012.17-.02.01-.022-.006-.03-.026M8.156-41.042a.249.249 0 0 1-.026.19c-.053.101-.112.063-.165.128a.636.636 0 0 0-.08.363c-.168.057-.009.226-.014.35-.003.05-.04.105-.045.16a.77.77 0 0 0 .068.37c.097.199.268.414.435.544.19.149.364.573.608.631.177.042.384-.104.543-.142.18-.043.397.01.571-.053.222-.08.128-.337.288-.45.105-.074.287-.01.407-.051.2-.07.339-.263.376-.46.015-.082.01-.144.038-.22.039-.103.111-.16.09-.294-.01-.061-.051-.12-.064-.186-.022-.114.002-.224 0-.337-.002-.2.017-.379-.078-.55-.38-.687-1.236-.929-1.974-.789-.18.034-.287.126-.442.207-.17.088-.139.166-.318.224-.082.026-.216.124-.215.223.001.116.005.051.011.17-.02.01-.021-.006-.03-.026M.495-41.042a.249.249 0 0 1-.026.19c-.052.101-.112.063-.165.128a.636.636 0 0 0-.079.363c-.169.057-.01.226-.015.35-.002.05-.04.105-.045.16a.77.77 0 0 0 .068.37c.097.199.268.414.435.544.19.149.365.573.608.631.178.042.384-.104.543-.142.18-.043.398.01.572-.053.221-.08.127-.337.288-.45.104-.074.287-.01.406-.051.2-.07.339-.263.376-.46.016-.082.01-.144.039-.22.038-.103.11-.16.09-.294-.01-.061-.052-.12-.065-.186-.022-.114.002-.224 0-.337-.002-.2.017-.379-.077-.55-.38-.687-1.237-.929-1.975-.789-.18.034-.286.126-.442.207-.17.088-.138.166-.318.224-.081.026-.216.124-.215.223.002.116.005.051.012.17-.02.01-.022-.006-.03-.026"/></g><g><path class="st2" d="M69.439-33.39a.25.25 0 0 1-.026.19c-.053.101-.112.063-.165.129a.637.637 0 0 0-.08.362c-.168.058-.009.227-.014.35-.003.05-.04.105-.045.16a.77.77 0 0 0 .068.37c.097.2.268.414.435.545.19.148.365.572.608.63.177.043.384-.104.543-.142.18-.043.398.01.572-.053.221-.079.127-.336.288-.45.104-.074.287-.01.406-.05.2-.07.339-.263.376-.46.015-.083.01-.145.038-.221.039-.103.112-.16.09-.293-.01-.062-.051-.12-.064-.187-.022-.114.002-.223 0-.337-.002-.2.017-.379-.077-.55-.38-.687-1.237-.928-1.975-.789-.18.035-.287.126-.442.207-.17.088-.139.167-.318.224-.081.026-.216.124-.215.224.001.115.005.05.012.169-.02.01-.022-.005-.03-.026M61.778-33.39a.249.249 0 0 1-.026.19c-.052.101-.112.063-.165.129a.636.636 0 0 0-.079.362c-.169.058-.009.227-.015.35-.002.05-.04.105-.045.16-.01.12.017.266.068.37.097.2.268.414.435.545.19.148.365.572.609.63.177.043.383-.104.543-.142.18-.043.397.01.57-.053.223-.079.128-.336.289-.45.104-.074.287-.01.406-.05.2-.07.339-.263.376-.46.016-.083.01-.145.039-.221.038-.103.111-.16.09-.293-.01-.062-.052-.12-.064-.187-.022-.114.002-.223 0-.337-.003-.2.017-.379-.078-.55-.38-.687-1.236-.928-1.975-.789-.18.035-.286.126-.442.207-.17.088-.138.166-.318.224-.081.026-.216.124-.215.224.002.115.005.05.012.169-.02.01-.022-.005-.03-.026M54.118-33.39a.249.249 0 0 1-.026.19c-.052.101-.112.063-.165.129a.637.637 0 0 0-.079.362c-.169.058-.01.227-.015.35-.002.05-.04.105-.045.16a.77.77 0 0 0 .068.37c.097.2.268.414.435.545.19.148.365.572.608.63.178.043.384-.104.543-.142.18-.043.398.01.572-.053.221-.079.127-.336.288-.45.104-.074.287-.01.406-.05.2-.07.339-.263.376-.46.016-.083.01-.145.039-.221.038-.103.11-.16.09-.293-.01-.062-.052-.12-.065-.187-.022-.114.002-.223 0-.337-.002-.2.018-.379-.077-.55-.38-.687-1.237-.928-1.975-.789-.18.035-.286.126-.442.207-.17.088-.138.167-.318.224-.081.026-.216.124-.215.224.002.115.005.05.012.169-.02.01-.022-.005-.03-.026M46.458-33.39a.249.249 0 0 1-.026.19c-.053.101-.113.063-.165.129a.636.636 0 0 0-.08.362c-.168.058-.009.227-.015.35-.002.05-.04.105-.045.16-.01.12.018.266.068.37.097.2.268.414.435.545.19.148.365.572.609.63.177.043.384-.104.543-.142.18-.043.397.01.571-.053.222-.079.127-.336.288-.45.105-.074.287-.01.406-.05.2-.07.34-.263.376-.46.016-.083.01-.145.039-.221.038-.103.111-.16.09-.293-.01-.062-.052-.12-.064-.187-.022-.114.002-.223 0-.337-.003-.2.017-.379-.078-.55-.38-.687-1.236-.928-1.974-.789-.18.035-.287.126-.442.207-.17.088-.139.166-.319.224-.08.026-.216.124-.215.224.002.115.005.05.012.169-.02.01-.021-.005-.03-.026M38.797-33.39a.249.249 0 0 1-.026.19c-.052.101-.112.063-.165.129a.637.637 0 0 0-.079.362c-.169.058-.009.227-.015.35-.002.05-.04.105-.045.16a.77.77 0 0 0 .068.37c.097.2.268.414.435.545.19.148.365.572.609.63.177.043.383-.104.543-.142.18-.043.397.01.57-.053.223-.079.128-.336.289-.45.104-.074.287-.01.406-.05.2-.07.34-.263.376-.46.016-.083.01-.145.039-.221.038-.103.111-.16.09-.293-.01-.062-.052-.12-.064-.187-.022-.114.002-.223 0-.337-.003-.2.017-.379-.078-.55-.38-.687-1.236-.928-1.975-.789-.18.035-.286.126-.441.207-.17.088-.14.167-.319.224-.08.026-.216.124-.215.224.002.115.005.05.012.169-.02.01-.021-.005-.03-.026M31.137-33.39a.249.249 0 0 1-.026.19c-.053.101-.112.063-.165.129a.636.636 0 0 0-.08.362c-.168.058-.009.227-.014.35-.003.05-.041.105-.045.16-.01.12.017.266.068.37.097.2.268.414.435.545.19.148.364.572.608.63.177.043.384-.104.543-.142.18-.043.397.01.571-.053.222-.079.128-.336.288-.45.105-.074.287-.01.407-.05.2-.07.338-.263.376-.46.015-.083.01-.145.038-.221.039-.103.111-.16.09-.293-.01-.062-.051-.12-.064-.187-.022-.114.002-.223 0-.337-.002-.2.017-.379-.078-.55-.38-.687-1.236-.928-1.974-.789-.18.035-.287.126-.442.207-.17.088-.139.166-.319.224-.08.026-.215.124-.214.224.001.115.005.05.011.169-.02.01-.021-.005-.03-.026M23.477-33.39a.249.249 0 0 1-.026.19c-.053.101-.113.063-.165.129a.637.637 0 0 0-.08.362c-.168.058-.009.227-.015.35-.002.05-.04.105-.045.16a.77.77 0 0 0 .068.37c.098.2.268.414.435.545.19.148.365.572.609.63.177.043.384-.104.543-.142.18-.043.397.01.571-.053.222-.079.128-.336.288-.45.105-.074.287-.01.406-.05.2-.07.34-.263.376-.46.016-.083.01-.145.039-.221.039-.103.111-.16.09-.293-.01-.062-.051-.12-.064-.187-.022-.114.002-.223 0-.337-.003-.2.017-.379-.078-.55-.38-.687-1.236-.928-1.974-.789-.18.035-.287.126-.442.207-.17.088-.139.167-.319.224-.08.026-.215.124-.215.224.002.115.005.05.012.169-.02.01-.021-.005-.03-.026M15.816-33.39a.249.249 0 0 1-.026.19c-.053.101-.112.063-.165.129a.636.636 0 0 0-.08.362c-.168.058-.008.227-.014.35-.003.05-.04.105-.045.16-.01.12.017.266.068.37.097.2.268.414.435.545.19.148.365.572.608.63.177.043.384-.104.543-.142.18-.043.398.01.571-.053.222-.079.128-.336.289-.45.104-.074.287-.01.406-.05.2-.07.339-.263.376-.46.015-.083.01-.145.038-.221.039-.103.112-.16.09-.293-.01-.062-.051-.12-.064-.187-.022-.114.002-.223 0-.337-.002-.2.017-.379-.077-.55-.38-.687-1.237-.928-1.975-.789-.18.035-.287.126-.442.207-.17.088-.139.166-.318.224-.081.026-.216.124-.215.224.001.115.005.05.012.169-.02.01-.022-.005-.03-.026M8.156-33.39a.249.249 0 0 1-.026.19c-.053.101-.112.063-.165.129a.636.636 0 0 0-.08.362c-.168.058-.009.227-.014.35-.003.05-.04.105-.045.16a.77.77 0 0 0 .068.37c.097.2.268.414.435.545.19.148.364.572.608.63.177.043.384-.104.543-.142.18-.043.397.01.571-.053.222-.079.128-.336.288-.45.105-.074.288-.01.407-.05.2-.07.339-.263.376-.46.015-.083.01-.145.038-.221.039-.103.111-.16.09-.293-.01-.062-.051-.12-.064-.187-.022-.114.002-.223 0-.337-.002-.2.017-.379-.078-.55-.38-.687-1.236-.928-1.974-.789-.18.035-.287.126-.442.207-.17.088-.139.166-.318.224-.082.026-.216.124-.215.224.001.115.005.05.011.169-.02.01-.021-.005-.03-.026M.495-33.39a.249.249 0 0 1-.026.19c-.052.101-.112.063-.165.129a.636.636 0 0 0-.079.362c-.169.058-.01.227-.015.35-.002.05-.04.105-.045.16a.77.77 0 0 0 .068.37c.097.2.268.414.435.545.19.148.365.572.608.63.178.043.384-.104.543-.142.18-.043.398.01.572-.053.221-.079.127-.336.288-.45.104-.074.287-.01.406-.05.2-.07.339-.263.376-.46.016-.083.01-.145.039-.221.038-.103.11-.16.09-.293-.01-.062-.052-.12-.065-.187-.022-.114.002-.223 0-.337-.002-.2.017-.379-.077-.55-.38-.687-1.237-.928-1.975-.789-.18.035-.286.126-.442.207-.17.088-.138.166-.318.224-.081.026-.216.124-.215.224.002.115.005.05.012.169-.02.01-.022-.005-.03-.026"/></g><g><path class="st2" d="M69.439-25.736a.25.25 0 0 1-.026.19c-.053.1-.112.063-.165.128a.637.637 0 0 0-.08.362c-.168.058-.009.227-.014.35-.003.05-.04.105-.045.161a.77.77 0 0 0 .068.37c.097.198.268.413.435.544.19.149.365.572.608.631.177.042.384-.104.543-.143.18-.042.398.01.572-.052.221-.08.127-.337.288-.45.104-.075.287-.01.406-.051.2-.07.339-.263.376-.46.015-.082.01-.145.038-.221.039-.102.112-.16.09-.293-.01-.061-.051-.12-.064-.186-.022-.115.002-.224 0-.337-.002-.2.017-.38-.077-.55-.38-.688-1.237-.929-1.975-.79-.18.035-.287.127-.442.208-.17.088-.139.166-.318.223-.081.027-.216.124-.215.224.001.115.005.05.012.169-.02.01-.022-.005-.03-.025M61.778-25.736a.249.249 0 0 1-.026.19c-.052.1-.112.063-.165.128a.636.636 0 0 0-.079.362c-.169.058-.009.227-.015.35-.002.05-.04.105-.045.161-.01.12.017.266.068.37.097.198.268.413.435.544.19.149.365.572.609.631.177.042.383-.104.543-.143.18-.042.397.01.57-.052.223-.08.128-.337.289-.45.104-.075.287-.01.406-.051.2-.07.339-.263.376-.46.016-.082.01-.145.039-.221.038-.102.111-.16.09-.293-.01-.061-.052-.12-.064-.186-.022-.115.002-.224 0-.337-.003-.2.017-.38-.078-.55-.38-.688-1.236-.929-1.975-.79-.18.035-.286.127-.442.208-.17.088-.138.166-.318.223-.081.027-.216.124-.215.224.002.115.005.05.012.169-.02.01-.022-.005-.03-.025M54.118-25.736a.249.249 0 0 1-.026.19c-.052.1-.112.063-.165.128a.637.637 0 0 0-.079.362c-.169.058-.01.227-.015.35-.002.05-.04.105-.045.161a.77.77 0 0 0 .068.37c.097.198.268.413.435.544.19.149.365.572.608.631.178.042.384-.104.543-.143.18-.042.398.01.572-.052.221-.08.127-.337.288-.45.104-.075.287-.01.406-.051.2-.07.339-.263.376-.46.016-.082.01-.145.039-.221.038-.102.11-.16.09-.293-.01-.061-.052-.12-.065-.186-.022-.115.002-.224 0-.337-.002-.2.018-.38-.077-.55-.38-.688-1.237-.929-1.975-.79-.18.035-.286.127-.442.208-.17.088-.138.166-.318.223-.081.027-.216.124-.215.224.002.115.005.05.012.169-.02.01-.022-.005-.03-.025M46.458-25.736a.249.249 0 0 1-.026.19c-.053.1-.113.063-.165.128a.636.636 0 0 0-.08.362c-.168.058-.009.227-.015.35-.002.05-.04.105-.045.161-.01.12.018.266.068.37.097.198.268.413.435.544.19.149.365.572.609.631.177.042.384-.104.543-.143.18-.042.397.01.571-.052.222-.08.127-.337.288-.45.105-.075.287-.01.406-.051.2-.07.34-.263.376-.46.016-.082.01-.145.039-.221.038-.102.111-.16.09-.293-.01-.061-.052-.12-.064-.186-.022-.115.002-.224 0-.337-.003-.2.017-.38-.078-.55-.38-.688-1.236-.929-1.974-.79-.18.035-.287.127-.442.208-.17.088-.139.166-.319.223-.08.027-.216.124-.215.224.002.115.005.05.012.169-.02.01-.021-.005-.03-.025M38.797-25.736a.249.249 0 0 1-.026.19c-.052.1-.112.063-.165.128a.637.637 0 0 0-.079.362c-.169.058-.009.227-.015.35-.002.05-.04.105-.045.161a.77.77 0 0 0 .068.37c.097.198.268.413.435.544.19.149.365.572.609.631.177.042.383-.104.543-.143.18-.042.397.01.57-.052.223-.08.128-.337.289-.45.104-.075.287-.01.406-.051.2-.07.34-.263.376-.46.016-.082.01-.145.039-.221.038-.102.111-.16.09-.293-.01-.061-.052-.12-.064-.186-.022-.115.002-.224 0-.337-.003-.2.017-.38-.078-.55-.38-.688-1.236-.929-1.975-.79-.18.035-.286.127-.441.208-.17.088-.14.166-.319.223-.08.027-.216.124-.215.224.002.115.005.05.012.169-.02.01-.021-.005-.03-.025M31.137-25.736a.249.249 0 0 1-.026.19c-.053.1-.112.063-.165.128a.636.636 0 0 0-.08.362c-.168.058-.009.227-.014.35-.003.05-.041.105-.045.161-.01.12.017.266.068.37.097.198.268.413.435.544.19.149.364.572.608.631.177.042.384-.104.543-.143.18-.042.397.01.571-.052.222-.08.128-.337.288-.45.105-.075.287-.01.407-.051.2-.07.338-.263.376-.46.015-.082.01-.145.038-.221.039-.102.111-.16.09-.293-.01-.061-.051-.12-.064-.186-.022-.115.002-.224 0-.337-.002-.2.017-.38-.078-.55-.38-.688-1.236-.929-1.974-.79-.18.035-.287.127-.442.208-.17.088-.139.166-.319.223-.08.027-.215.124-.214.224.001.115.005.05.011.169-.02.01-.021-.005-.03-.025M23.477-25.736a.249.249 0 0 1-.026.19c-.053.1-.113.063-.165.128a.637.637 0 0 0-.08.362c-.168.058-.009.227-.015.35-.002.05-.04.105-.045.161a.77.77 0 0 0 .068.37c.098.198.268.413.435.544.19.149.365.572.609.631.177.042.384-.104.543-.143.18-.042.397.01.571-.052.222-.08.128-.337.288-.45.105-.075.287-.01.406-.051.2-.07.34-.263.376-.46.016-.082.01-.145.039-.221.039-.102.111-.16.09-.293-.01-.061-.051-.12-.064-.186-.022-.115.002-.224 0-.337-.003-.2.017-.38-.078-.55-.38-.688-1.236-.929-1.974-.79-.18.035-.287.127-.442.208-.17.088-.139.166-.319.223-.08.027-.215.124-.215.224.002.115.005.05.012.169-.02.01-.021-.005-.03-.025M15.816-25.736a.249.249 0 0 1-.026.19c-.053.1-.112.063-.165.128a.636.636 0 0 0-.08.362c-.168.058-.008.227-.014.35-.003.05-.04.105-.045.161-.01.12.017.266.068.37.097.198.268.413.435.544.19.149.365.572.608.631.177.042.384-.104.543-.143.18-.042.398.01.571-.052.222-.08.128-.337.289-.45.104-.075.287-.01.406-.051.2-.07.339-.263.376-.46.015-.082.01-.145.038-.221.039-.102.112-.16.09-.293-.01-.061-.051-.12-.064-.186-.022-.115.002-.224 0-.337-.002-.2.017-.38-.077-.55-.38-.688-1.237-.929-1.975-.79-.18.035-.287.127-.442.208-.17.088-.139.166-.318.223-.081.027-.216.124-.215.224.001.115.005.05.012.169-.02.01-.022-.005-.03-.025M8.156-25.736a.249.249 0 0 1-.026.19c-.053.1-.112.063-.165.128a.636.636 0 0 0-.08.362c-.168.058-.009.227-.014.35-.003.05-.04.105-.045.161a.77.77 0 0 0 .068.37c.097.198.268.413.435.544.19.149.364.572.608.631.177.042.384-.104.543-.143.18-.042.397.01.571-.052.222-.08.128-.337.288-.45.105-.075.288-.01.407-.051.2-.07.339-.263.376-.46.015-.082.01-.145.038-.221.039-.102.111-.16.09-.293-.01-.061-.051-.12-.064-.186-.022-.115.002-.224 0-.337-.002-.2.017-.38-.078-.55-.38-.688-1.236-.929-1.974-.79-.18.035-.287.127-.442.208-.17.088-.139.166-.318.223-.082.027-.216.124-.215.224.001.115.005.05.011.169-.02.01-.021-.005-.03-.025M.495-25.736a.249.249 0 0 1-.026.19c-.052.1-.112.063-.165.128a.636.636 0 0 0-.079.362c-.169.058-.01.227-.015.35-.002.05-.04.105-.045.161a.77.77 0 0 0 .068.37c.097.198.268.413.435.544.19.149.365.572.608.631.178.042.384-.104.543-.143.18-.042.398.01.572-.052.221-.08.127-.337.288-.45.104-.075.287-.01.406-.051.2-.07.339-.263.376-.46.016-.082.01-.145.039-.221.038-.102.11-.16.09-.293-.01-.061-.052-.12-.065-.186-.022-.115.002-.224 0-.337-.002-.2.017-.38-.077-.55-.38-.688-1.237-.929-1.975-.79-.18.035-.286.127-.442.208-.17.088-.138.166-.318.223-.081.027-.216.124-.215.224.002.115.005.05.012.169-.02.01-.022-.005-.03-.025"/></g><g><path class="st2" d="M69.439-18.084a.249.249 0 0 1-.026.19c-.053.101-.112.063-.165.128a.637.637 0 0 0-.08.363c-.168.057-.009.226-.014.35-.003.05-.04.105-.045.16a.77.77 0 0 0 .068.37c.097.199.268.414.435.544.19.149.365.573.608.631.177.042.384-.104.543-.142.18-.043.398.01.572-.053.221-.08.127-.337.288-.45.104-.074.287-.01.406-.05.2-.07.339-.264.376-.46.015-.083.01-.145.038-.222.039-.102.112-.16.09-.293-.01-.061-.051-.12-.064-.186-.022-.114.002-.224 0-.337-.002-.2.017-.379-.077-.55-.38-.687-1.237-.929-1.975-.789-.18.034-.287.126-.442.207-.17.088-.139.166-.318.224-.081.026-.216.124-.215.223.001.116.005.051.012.17-.02.01-.022-.006-.03-.026M61.778-18.084a.248.248 0 0 1-.026.19c-.052.101-.112.063-.165.128a.636.636 0 0 0-.079.363c-.169.057-.009.226-.015.35-.002.05-.04.105-.045.16a.77.77 0 0 0 .068.37c.097.199.268.414.435.544.19.149.365.573.609.631.177.042.383-.104.543-.142.18-.043.397.01.57-.053.223-.08.128-.337.289-.45.104-.074.287-.01.406-.05.2-.07.339-.264.376-.46.016-.083.01-.145.039-.222.038-.102.111-.16.09-.293-.01-.061-.052-.12-.064-.186-.022-.114.002-.224 0-.337-.003-.2.017-.379-.078-.55-.38-.687-1.236-.929-1.975-.789-.18.034-.286.126-.442.207-.17.088-.138.166-.318.224-.081.026-.216.124-.215.223.002.116.005.051.012.17-.02.01-.022-.006-.03-.026M54.118-18.084a.249.249 0 0 1-.026.19c-.052.101-.112.063-.165.128a.636.636 0 0 0-.079.363c-.169.057-.01.226-.015.35-.002.05-.04.105-.045.16a.77.77 0 0 0 .068.37c.097.199.268.414.435.544.19.149.365.573.608.631.178.042.384-.104.543-.142.18-.043.398.01.572-.053.221-.08.127-.337.288-.45.104-.074.287-.01.406-.05.2-.07.339-.264.376-.46.016-.083.01-.145.039-.222.038-.102.11-.16.09-.293-.01-.061-.052-.12-.065-.186-.022-.114.002-.224 0-.337-.002-.2.018-.379-.077-.55-.38-.687-1.237-.929-1.975-.789-.18.034-.286.126-.442.207-.17.088-.138.166-.318.224-.081.026-.216.124-.215.223.002.116.005.051.012.17-.02.01-.022-.006-.03-.026M46.458-18.084a.248.248 0 0 1-.026.19c-.053.101-.113.063-.165.128a.636.636 0 0 0-.08.363c-.168.057-.009.226-.015.35-.002.05-.04.105-.045.16a.77.77 0 0 0 .068.37c.097.199.268.414.435.544.19.149.365.573.609.631.177.042.384-.104.543-.142.18-.043.397.01.571-.053.222-.08.127-.337.288-.45.105-.074.287-.01.406-.05.2-.07.34-.264.376-.46.016-.083.01-.145.039-.222.038-.102.111-.16.09-.293-.01-.061-.052-.12-.064-.186-.022-.114.002-.224 0-.337-.003-.2.017-.379-.078-.55-.38-.687-1.236-.929-1.974-.789-.18.034-.287.126-.442.207-.17.088-.139.166-.319.224-.08.026-.216.124-.215.223.002.116.005.051.012.17-.02.01-.021-.006-.03-.026M38.797-18.084a.249.249 0 0 1-.026.19c-.052.101-.112.063-.165.128a.636.636 0 0 0-.079.363c-.169.057-.009.226-.015.35-.002.05-.04.105-.045.16a.77.77 0 0 0 .068.37c.097.199.268.414.435.544.19.149.365.573.609.631.177.042.383-.104.543-.142.18-.043.397.01.57-.053.223-.08.128-.337.289-.45.104-.074.287-.01.406-.05.2-.07.34-.264.376-.46.016-.083.01-.145.039-.222.038-.102.111-.16.09-.293-.01-.061-.052-.12-.064-.186-.022-.114.002-.224 0-.337-.003-.2.017-.379-.078-.55-.38-.687-1.236-.929-1.975-.789-.18.034-.286.126-.441.207-.17.088-.14.166-.319.224-.08.026-.216.124-.215.223.002.116.005.051.012.17-.02.01-.021-.006-.03-.026M31.137-18.084a.248.248 0 0 1-.026.19c-.053.101-.112.063-.165.128a.636.636 0 0 0-.08.363c-.168.057-.009.226-.014.35-.003.05-.041.105-.045.16a.77.77 0 0 0 .068.37c.097.199.268.414.435.544.19.149.364.573.608.631.177.042.384-.104.543-.142.18-.043.397.01.571-.053.222-.08.128-.337.288-.45.105-.074.287-.01.407-.05.2-.07.338-.264.376-.46.015-.083.01-.145.038-.222.039-.102.111-.16.09-.293-.01-.061-.051-.12-.064-.186-.022-.114.002-.224 0-.337-.002-.2.017-.379-.078-.55-.38-.687-1.236-.929-1.974-.789-.18.034-.287.126-.442.207-.17.088-.139.166-.319.224-.08.026-.215.124-.214.223.001.116.005.051.011.17-.02.01-.021-.006-.03-.026M23.477-18.084a.249.249 0 0 1-.026.19c-.053.101-.113.063-.165.128a.636.636 0 0 0-.08.363c-.168.057-.009.226-.015.35-.002.05-.04.105-.045.16a.77.77 0 0 0 .068.37c.098.199.268.414.435.544.19.149.365.573.609.631.177.042.384-.104.543-.142.18-.043.397.01.571-.053.222-.08.128-.337.288-.45.105-.074.287-.01.406-.05.2-.07.34-.264.376-.46.016-.083.01-.145.039-.222.039-.102.111-.16.09-.293-.01-.061-.051-.12-.064-.186-.022-.114.002-.224 0-.337-.003-.2.017-.379-.078-.55-.38-.687-1.236-.929-1.974-.789-.18.034-.287.126-.442.207-.17.088-.139.166-.319.224-.08.026-.215.124-.215.223.002.116.005.051.012.17-.02.01-.021-.006-.03-.026M15.816-18.084a.248.248 0 0 1-.026.19c-.053.101-.112.063-.165.128a.636.636 0 0 0-.08.363c-.168.057-.008.226-.014.35-.003.05-.04.105-.045.16a.77.77 0 0 0 .068.37c.097.199.268.414.435.544.19.149.365.573.608.631.177.042.384-.104.543-.142.18-.043.398.01.571-.053.222-.08.128-.337.289-.45.104-.074.287-.01.406-.05.2-.07.339-.264.376-.46.015-.083.01-.145.038-.222.039-.102.112-.16.09-.293-.01-.061-.051-.12-.064-.186-.022-.114.002-.224 0-.337-.002-.2.017-.379-.077-.55-.38-.687-1.237-.929-1.975-.789-.18.034-.287.126-.442.207-.17.088-.139.166-.318.224-.081.026-.216.124-.215.223.001.116.005.051.012.17-.02.01-.022-.006-.03-.026M8.156-18.084a.249.249 0 0 1-.026.19c-.053.101-.112.063-.165.128a.636.636 0 0 0-.08.363c-.168.057-.009.226-.014.35-.003.05-.04.105-.045.16a.77.77 0 0 0 .068.37c.097.199.268.414.435.544.19.149.364.573.608.631.177.042.384-.104.543-.142.18-.043.397.01.571-.053.222-.08.128-.337.288-.45.105-.074.288-.01.407-.05.2-.07.339-.264.376-.46.015-.083.01-.145.038-.222.039-.102.111-.16.09-.293-.01-.061-.051-.12-.064-.186-.022-.114.002-.224 0-.337-.002-.2.017-.379-.078-.55-.38-.687-1.236-.929-1.974-.789-.18.034-.287.126-.442.207-.17.088-.139.166-.318.224-.082.026-.216.124-.215.223.001.116.005.051.011.17-.02.01-.021-.006-.03-.026M.495-18.084a.249.249 0 0 1-.026.19c-.052.101-.112.063-.165.128a.636.636 0 0 0-.079.363c-.169.057-.01.226-.015.35-.002.05-.04.105-.045.16a.77.77 0 0 0 .068.37c.097.199.268.414.435.544.19.149.365.573.608.631.178.042.384-.104.543-.142.18-.043.398.01.572-.053.221-.08.127-.337.288-.45.104-.074.287-.01.406-.05.2-.07.339-.264.376-.46.016-.083.01-.145.039-.222.038-.102.11-.16.09-.293-.01-.061-.052-.12-.065-.186-.022-.114.002-.224 0-.337-.002-.2.017-.379-.077-.55-.38-.687-1.237-.929-1.975-.789-.18.034-.286.126-.442.207-.17.088-.138.166-.318.224-.081.026-.216.124-.215.223.002.116.005.051.012.17-.02.01-.022-.006-.03-.026"/></g><g><path class="st2" d="M69.439-10.43a.25.25 0 0 1-.026.19c-.053.1-.112.062-.165.128a.637.637 0 0 0-.08.362c-.168.058-.009.227-.014.35-.003.05-.04.105-.045.16a.77.77 0 0 0 .068.37c.097.2.268.414.435.545.19.148.365.572.608.63.177.043.384-.104.543-.142.18-.043.398.01.572-.053.221-.079.127-.337.288-.45.104-.074.287-.01.406-.05.2-.07.339-.263.376-.46.015-.083.01-.145.038-.221.039-.103.112-.16.09-.293-.01-.062-.051-.12-.064-.187-.022-.114.002-.223 0-.337-.002-.2.017-.379-.077-.55-.38-.687-1.237-.928-1.975-.789-.18.035-.287.126-.442.208-.17.087-.139.165-.318.223-.081.027-.216.124-.215.224.001.115.005.05.012.169-.02.01-.022-.005-.03-.026M61.778-10.43a.249.249 0 0 1-.026.19c-.052.1-.112.062-.165.128a.636.636 0 0 0-.079.362c-.169.058-.009.227-.015.35-.002.05-.04.105-.045.16-.01.12.017.266.068.37.097.2.268.414.435.545.19.148.365.572.609.63.177.043.383-.104.543-.142.18-.043.397.01.57-.053.223-.079.128-.337.289-.45.104-.074.287-.01.406-.05.2-.07.339-.263.376-.46.016-.083.01-.145.039-.221.038-.103.111-.16.09-.293-.01-.062-.052-.12-.064-.187-.022-.114.002-.223 0-.337-.003-.2.017-.379-.078-.55-.38-.687-1.236-.928-1.975-.789-.18.035-.286.126-.442.208-.17.087-.138.165-.318.223-.081.027-.216.124-.215.224.002.115.005.05.012.169-.02.01-.022-.005-.03-.026M54.118-10.43a.25.25 0 0 1-.026.19c-.052.1-.112.062-.165.128a.637.637 0 0 0-.079.362c-.169.058-.01.227-.015.35-.002.05-.04.105-.045.16a.77.77 0 0 0 .068.37c.097.2.268.414.435.545.19.148.365.572.608.63.178.043.384-.104.543-.142.18-.043.398.01.572-.053.221-.079.127-.337.288-.45.104-.074.287-.01.406-.05.2-.07.339-.263.376-.46.016-.083.01-.145.039-.221.038-.103.11-.16.09-.293-.01-.062-.052-.12-.065-.187-.022-.114.002-.223 0-.337-.002-.2.018-.379-.077-.55-.38-.687-1.237-.928-1.975-.789-.18.035-.286.126-.442.208-.17.087-.138.165-.318.223-.081.027-.216.124-.215.224.002.115.005.05.012.169-.02.01-.022-.005-.03-.026M46.458-10.43a.249.249 0 0 1-.026.19c-.053.1-.113.062-.165.128a.636.636 0 0 0-.08.362c-.168.058-.009.227-.015.35-.002.05-.04.105-.045.16-.01.12.018.266.068.37.097.2.268.414.435.545.19.148.365.572.609.63.177.043.384-.104.543-.142.18-.043.397.01.571-.053.222-.079.127-.337.288-.45.105-.074.287-.01.406-.05.2-.07.34-.263.376-.46.016-.083.01-.145.039-.221.038-.103.111-.16.09-.293-.01-.062-.052-.12-.064-.187-.022-.114.002-.223 0-.337-.003-.2.017-.379-.078-.55-.38-.687-1.236-.928-1.974-.789-.18.035-.287.126-.442.208-.17.087-.139.165-.319.223-.08.027-.216.124-.215.224.002.115.005.05.012.169-.02.01-.021-.005-.03-.026M38.797-10.43a.25.25 0 0 1-.026.19c-.052.1-.112.062-.165.128a.637.637 0 0 0-.079.362c-.169.058-.009.227-.015.35-.002.05-.04.105-.045.16a.77.77 0 0 0 .068.37c.097.2.268.414.435.545.19.148.365.572.609.63.177.043.383-.104.543-.142.18-.043.397.01.57-.053.223-.079.128-.337.289-.45.104-.074.287-.01.406-.05.2-.07.34-.263.376-.46.016-.083.01-.145.039-.221.038-.103.111-.16.09-.293-.01-.062-.052-.12-.064-.187-.022-.114.002-.223 0-.337-.003-.2.017-.379-.078-.55-.38-.687-1.236-.928-1.975-.789-.18.035-.286.126-.442.208-.17.087-.138.165-.318.223-.08.027-.216.124-.215.224.002.115.005.05.012.169-.02.01-.021-.005-.03-.026M31.137-10.43a.249.249 0 0 1-.026.19c-.053.1-.112.062-.165.128a.636.636 0 0 0-.08.362c-.168.058-.009.227-.014.35-.003.05-.041.105-.045.16-.01.12.017.266.068.37.097.2.268.414.435.545.19.148.364.572.608.63.177.043.384-.104.543-.142.18-.043.397.01.571-.053.222-.079.128-.337.288-.45.105-.074.287-.01.407-.05.2-.07.338-.263.376-.46.015-.083.01-.145.038-.221.039-.103.111-.16.09-.293-.01-.062-.051-.12-.064-.187-.022-.114.002-.223 0-.337-.002-.2.017-.379-.078-.55-.38-.687-1.236-.928-1.974-.789-.18.035-.287.126-.442.208-.17.087-.139.165-.319.223-.08.027-.215.124-.214.224.001.115.005.05.011.169-.02.01-.021-.005-.03-.026M23.477-10.43a.25.25 0 0 1-.026.19c-.053.1-.113.062-.165.128a.637.637 0 0 0-.08.362c-.168.058-.009.227-.015.35-.002.05-.04.105-.045.16a.77.77 0 0 0 .068.37c.098.2.268.414.435.545.19.148.365.572.609.63.177.043.384-.104.543-.142.18-.043.397.01.571-.053.222-.079.128-.337.288-.45.105-.074.287-.01.406-.05.2-.07.34-.263.376-.46.016-.083.01-.145.039-.221.039-.103.111-.16.09-.293-.01-.062-.051-.12-.064-.187-.022-.114.002-.223 0-.337-.003-.2.017-.379-.078-.55-.38-.687-1.236-.928-1.974-.789-.18.035-.287.126-.442.208-.17.087-.139.165-.319.223-.08.027-.215.124-.215.224.002.115.005.05.012.169-.02.01-.021-.005-.03-.026M15.816-10.43a.249.249 0 0 1-.026.19c-.053.1-.112.062-.165.128a.636.636 0 0 0-.08.362c-.168.058-.008.227-.014.35-.003.05-.04.105-.045.16-.01.12.017.266.068.37.097.2.268.414.435.545.19.148.365.572.608.63.177.043.384-.104.543-.142.18-.043.398.01.571-.053.222-.079.128-.337.289-.45.104-.074.287-.01.406-.05.2-.07.339-.263.376-.46.015-.083.01-.145.038-.221.039-.103.112-.16.09-.293-.01-.062-.051-.12-.064-.187-.022-.114.002-.223 0-.337-.002-.2.017-.379-.077-.55-.38-.687-1.237-.928-1.975-.789-.18.035-.287.126-.442.208-.17.087-.139.165-.318.223-.081.027-.216.124-.215.224.001.115.005.05.012.169-.02.01-.022-.005-.03-.026M8.156-10.43a.249.249 0 0 1-.026.19c-.053.1-.112.062-.165.128a.636.636 0 0 0-.08.362c-.168.058-.009.227-.014.35-.003.05-.04.105-.045.16a.77.77 0 0 0 .068.37c.097.2.268.414.435.545.19.148.364.572.608.63.177.043.384-.104.543-.142.18-.043.397.01.571-.053.222-.079.128-.337.288-.45.105-.074.287-.01.407-.05.2-.07.339-.263.376-.46.015-.083.01-.145.038-.221.039-.103.111-.16.09-.293-.01-.062-.051-.12-.064-.187-.022-.114.002-.223 0-.337-.002-.2.017-.379-.078-.55-.38-.687-1.236-.928-1.974-.789-.18.035-.287.126-.442.208-.17.087-.139.165-.318.223-.082.027-.216.124-.215.224.001.115.005.05.011.169-.02.01-.021-.005-.03-.026M.495-10.43a.249.249 0 0 1-.026.19c-.052.1-.112.062-.165.128a.636.636 0 0 0-.079.362c-.169.058-.01.227-.015.35-.002.05-.04.105-.045.16a.77.77 0 0 0 .068.37c.097.2.268.414.435.545.19.148.365.572.608.63.178.043.384-.104.543-.142.18-.043.398.01.572-.053.221-.079.127-.337.288-.45.104-.074.287-.01.406-.05.2-.07.339-.263.376-.46.016-.083.01-.145.039-.221.038-.103.11-.16.09-.293-.01-.062-.052-.12-.065-.187-.022-.114.002-.223 0-.337-.002-.2.017-.379-.077-.55-.38-.687-1.237-.928-1.975-.789-.18.035-.286.126-.442.208-.17.087-.138.165-.318.223-.081.027-.216.124-.215.224.002.115.005.05.012.169-.02.01-.022-.005-.03-.026"/></g></g><g><path class="st2" d="M69.439-2.778a.247.247 0 0 1-.026.19c-.052.1-.113.063-.165.128a.633.633 0 0 0-.08.362c-.168.058-.01.227-.014.35-.003.05-.04.105-.045.161-.01.12.017.266.068.37.097.198.268.413.435.544.19.149.365.572.608.631.177.042.384-.104.543-.143.18-.043.398.01.572-.052.221-.08.127-.337.288-.45.104-.075.287-.01.406-.051.2-.07.34-.263.376-.46.015-.082.01-.145.038-.22.038-.103.112-.161.09-.294-.01-.061-.05-.12-.064-.186-.021-.115.002-.224 0-.337-.002-.2.017-.38-.077-.55-.38-.688-1.237-.929-1.975-.79-.18.035-.287.127-.442.208-.17.088-.139.166-.318.223-.081.027-.216.124-.215.224.002.115.005.05.012.169-.02.01-.022-.005-.03-.025M61.778-2.778a.249.249 0 0 1-.026.19c-.052.1-.112.063-.165.128a.636.636 0 0 0-.079.362c-.169.058-.01.227-.015.35-.002.05-.04.105-.045.161-.01.12.017.266.068.37.097.198.268.413.435.544.19.149.365.572.609.631.177.042.383-.104.543-.143.18-.043.397.01.57-.052.223-.08.128-.337.289-.45.104-.075.287-.01.406-.051.2-.07.339-.263.376-.46.016-.082.01-.145.039-.22.038-.103.111-.161.09-.294-.01-.061-.052-.12-.064-.186-.022-.115.002-.224 0-.337-.003-.2.017-.38-.078-.55-.38-.688-1.236-.929-1.975-.79-.18.035-.286.127-.442.208-.17.088-.138.166-.318.223-.081.027-.216.124-.215.224.002.115.005.05.012.169-.02.01-.022-.005-.03-.025M54.118-2.778a.249.249 0 0 1-.026.19c-.052.1-.112.063-.165.128a.637.637 0 0 0-.079.362c-.169.058-.01.227-.015.35-.002.05-.04.105-.045.161a.77.77 0 0 0 .068.37c.097.198.268.413.435.544.19.149.365.572.608.631.178.042.384-.104.543-.143.18-.043.398.01.572-.052.221-.08.127-.337.288-.45.104-.075.287-.01.406-.051.2-.07.339-.263.376-.46.016-.082.01-.145.039-.22.038-.103.11-.161.09-.294-.01-.061-.052-.12-.065-.186-.022-.115.002-.224 0-.337-.002-.2.018-.38-.077-.55-.38-.688-1.237-.929-1.975-.79-.18.035-.286.127-.442.208-.17.088-.138.166-.318.223-.081.027-.216.124-.215.224.002.115.005.05.012.169-.02.01-.022-.005-.03-.025M46.458-2.778a.249.249 0 0 1-.026.19c-.053.1-.113.063-.165.128a.636.636 0 0 0-.08.362c-.168.058-.01.227-.015.35-.002.05-.04.105-.045.161-.01.12.018.266.068.37.097.198.268.413.435.544.19.149.365.572.609.631.177.042.384-.104.543-.143.18-.043.397.01.571-.052.222-.08.127-.337.288-.45.105-.075.287-.01.406-.051.2-.07.34-.263.376-.46.016-.082.01-.145.039-.22.038-.103.111-.161.09-.294-.01-.061-.052-.12-.064-.186-.022-.115.002-.224 0-.337-.003-.2.017-.38-.078-.55-.38-.688-1.236-.929-1.974-.79-.18.035-.287.127-.442.208-.17.088-.139.166-.319.223-.08.027-.216.124-.215.224.002.115.005.05.012.169-.02.01-.021-.005-.03-.025M38.797-2.778a.25.25 0 0 1-.026.19c-.052.1-.112.063-.165.128a.637.637 0 0 0-.079.362c-.169.058-.01.227-.015.35-.002.05-.04.105-.045.161a.77.77 0 0 0 .068.37c.097.198.268.413.435.544.19.149.365.572.609.631.177.042.383-.104.543-.143.18-.043.397.01.57-.052.223-.08.128-.337.289-.45.104-.075.287-.01.406-.051.2-.07.34-.263.376-.46.016-.082.01-.145.039-.22.038-.103.111-.161.09-.294-.01-.061-.052-.12-.064-.186-.022-.115.002-.224 0-.337-.003-.2.017-.38-.078-.55-.38-.688-1.236-.929-1.975-.79-.18.035-.286.127-.442.208-.17.088-.138.166-.318.223-.08.027-.216.124-.215.224.002.115.005.05.012.169-.02.01-.021-.005-.03-.025M31.137-2.778a.249.249 0 0 1-.026.19c-.053.1-.112.063-.165.128a.636.636 0 0 0-.08.362c-.168.058-.01.227-.014.35-.003.05-.041.105-.045.161-.01.12.017.266.068.37.097.198.268.413.435.544.19.149.364.572.608.631.177.042.384-.104.543-.143.18-.043.397.01.571-.052.222-.08.128-.337.288-.45.105-.075.287-.01.407-.051.2-.07.338-.263.376-.46.015-.082.01-.145.038-.22.039-.103.111-.161.09-.294-.01-.061-.051-.12-.064-.186-.022-.115.002-.224 0-.337-.002-.2.017-.38-.078-.55-.38-.688-1.236-.929-1.974-.79-.18.035-.287.127-.442.208-.17.088-.139.166-.319.223-.08.027-.215.124-.214.224.001.115.005.05.011.169-.02.01-.021-.005-.03-.025M23.477-2.778a.25.25 0 0 1-.026.19c-.053.1-.113.063-.165.128a.637.637 0 0 0-.08.362c-.168.058-.01.227-.015.35-.002.05-.04.105-.045.161a.77.77 0 0 0 .068.37c.098.198.268.413.435.544.19.149.365.572.609.631.177.042.384-.104.543-.143.18-.043.397.01.571-.052.222-.08.128-.337.288-.45.105-.075.287-.01.406-.051.2-.07.34-.263.376-.46.016-.082.01-.145.039-.22.039-.103.111-.161.09-.294-.01-.061-.051-.12-.064-.186-.022-.115.002-.224 0-.337-.003-.2.017-.38-.078-.55-.38-.688-1.236-.929-1.974-.79-.18.035-.287.127-.442.208-.17.088-.139.166-.319.223-.08.027-.215.124-.215.224.002.115.005.05.012.169-.02.01-.021-.005-.03-.025M15.816-2.778a.249.249 0 0 1-.026.19c-.053.1-.112.063-.165.128a.636.636 0 0 0-.08.362c-.168.058-.009.227-.014.35-.003.05-.04.105-.045.161-.01.12.017.266.068.37.097.198.268.413.435.544.19.149.365.572.608.631.177.042.384-.104.543-.143.18-.043.398.01.571-.052.222-.08.128-.337.289-.45.104-.075.287-.01.406-.051.2-.07.339-.263.376-.46.015-.082.01-.145.038-.22.039-.103.112-.161.09-.294-.01-.061-.051-.12-.064-.186-.022-.115.002-.224 0-.337-.002-.2.017-.38-.077-.55-.38-.688-1.237-.929-1.975-.79-.18.035-.287.127-.442.208-.17.088-.139.166-.318.223-.081.027-.216.124-.215.224.001.115.005.05.012.169-.02.01-.022-.005-.03-.025M8.156-2.778a.249.249 0 0 1-.026.19c-.053.1-.112.063-.165.128a.636.636 0 0 0-.08.362c-.168.058-.009.227-.014.35-.003.05-.04.105-.045.161a.77.77 0 0 0 .068.37c.097.198.268.413.435.544.19.149.364.572.608.631.177.042.384-.104.543-.143.18-.043.397.01.571-.052.222-.08.128-.337.288-.45.105-.075.288-.01.407-.051.2-.07.339-.263.376-.46.015-.082.01-.145.038-.22.039-.103.111-.161.09-.294-.01-.061-.051-.12-.064-.186-.022-.115.002-.224 0-.337-.002-.2.017-.38-.078-.55-.38-.688-1.236-.929-1.974-.79-.18.035-.287.127-.442.208-.17.088-.139.166-.318.223-.082.027-.216.124-.215.224.001.115.005.05.011.169-.02.01-.021-.005-.03-.025M.495-2.778a.247.247 0 0 1-.026.19c-.052.1-.113.063-.165.128a.632.632 0 0 0-.079.362c-.169.058-.01.227-.015.35-.002.05-.04.105-.045.161-.01.12.017.266.068.37.097.198.268.413.435.544.19.149.365.572.608.631.178.042.384-.104.543-.143.18-.043.398.01.572-.052.221-.08.127-.337.288-.45.104-.075.287-.01.406-.051.2-.07.34-.263.376-.46.016-.082.01-.145.039-.22.038-.103.11-.161.09-.294-.01-.061-.051-.12-.065-.186-.021-.115.002-.224 0-.337-.002-.2.017-.38-.077-.55-.38-.688-1.237-.929-1.975-.79-.18.035-.286.127-.442.208-.17.088-.138.166-.318.223-.081.027-.215.124-.215.224.002.115.005.05.012.169-.02.01-.022-.005-.03-.025"/></g></pattern><path class="st3" d="M83.213 101.503c-16.721 0-30.276-13.554-30.278-30.273 0-16.722 13.556-30.276 30.276-30.276l.002-38.532c-38.003 0-68.81 30.805-68.81 68.808 0 38 30.807 68.806 68.81 68.806 38 0 68.806-30.807 68.806-68.806h-38.53c-.003 16.72-13.558 30.273-30.276 30.273"/><text transform="rotate(148.675 25.24 18.595)" class="st2 st4 st5"></text><text transform="rotate(140.597 21.413 21.428)" class="st2 st4 st6">E</text><text transform="matrix(-.63477 .77268 -.77269 -.63478 43.58 31.128)" class="st2 st4 st7">C</text><text transform="matrix(-.4491 .89347 -.89348 -.4491 36.047 40.592)" class="st2 st4 st8">U</text><text transform="matrix(-.2933 .95601 -.95602 -.2933 30.611 52.514)" class="st2 st4 st5"></text><text transform="matrix(-.12922 .99161 -.99162 -.12922 28.831 58.365)" class="st2 st4 st9">G</text><text transform="matrix(.07193 .9974 -.99741 .07193 27.534 71.085)" class="st2 st4 st8">E</text><text transform="matrix(.27917 .96023 -.96024 .27917 28.401 81.612)" class="st2 st4 st7">N</text><text transform="matrix(.49522 .86876 -.86877 .49522 32.251 94.324)" class="st2 st4 st10">D</text><text transform="matrix(.6626 .74896 -.74897 .6626 39.217 105.51)" class="st2 st4 st11">E</text><text transform="matrix(.79177 .6108 -.6108 .79178 46.19 113.2)" class="st2 st4 st12">R</text><text transform="rotate(29.119 -203.016 166.614)" class="st2 st4 st13"></text><text transform="rotate(20.154 -315.137 231.506)" class="st2 st4 st14">C</text><text transform="rotate(7.288 -959.253 627.573)" class="st2 st4 st14">H</text><text transform="rotate(-4.304 1746.278 -1051.073)" class="st2 st4 st14">A</text><text transform="rotate(-16.433 487.07 -270.145)" class="st2 st4 st15">R</text><text transform="rotate(-27.774 302.905 -155.51)" class="st2 st4 st16">T</text><text transform="rotate(-38.547 226.938 -107.892)" class="st2 st4 st17">E</text><text transform="rotate(-49.356 183.58 -80.183)" class="st2 st4 st8">R</text><path class="st2" d="M172.853 15.036v3.838h3.595V21.7h-3.595v6.605c0 1.81.493 2.764 1.935 2.764.707 0 1.043-.062 1.476-.184l.06 2.887c-.553.214-1.536.4-2.733.4-1.383 0-2.549-.492-3.255-1.26-.8-.861-1.171-2.213-1.171-4.178V21.7h-2.15v-2.827h2.15V16.11l3.688-1.075zM197.491 27.413c.095 2.704 2.213 3.872 4.611 3.872 1.749 0 3.01-.246 4.147-.676l.55 2.61c-1.29.522-3.069.953-5.222.953-4.851 0-7.708-3.01-7.708-7.587 0-4.146 2.518-8.05 7.31-8.05 4.885 0 6.452 3.994 6.452 7.28 0 .708-.062 1.262-.124 1.598H197.49zm6.575-2.64c.03-1.381-.582-3.658-3.101-3.658-2.337 0-3.318 2.12-3.474 3.658h6.575zM209.935 23.328c0-1.72-.028-3.165-.122-4.453h3.32l.181 2.242h.093c.645-1.169 2.275-2.58 4.762-2.58 2.61 0 5.314 1.689 5.314 6.42v8.878h-3.779v-8.449c0-2.149-.795-3.779-2.854-3.779-1.508 0-2.551 1.079-2.953 2.212-.12.34-.15.8-.15 1.228v8.788h-3.812V23.328zM238.233 30.24c0 1.352.063 2.672.216 3.595h-3.41l-.245-1.66h-.093c-.92 1.167-2.487 1.997-4.424 1.997-3.008 0-4.7-2.182-4.7-4.452 0-3.78 3.349-5.686 8.877-5.655v-.245c0-.985-.396-2.611-3.039-2.611-1.475 0-3.01.463-4.022 1.105l-.739-2.457c1.105-.675 3.041-1.322 5.405-1.322 4.793 0 6.174 3.044 6.174 6.298v5.408zm-3.684-3.717c-2.672-.062-5.223.523-5.223 2.797 0 1.474.951 2.148 2.15 2.148 1.505 0 2.61-.983 2.949-2.058.095-.274.124-.583.124-.828v-2.06zM186.73 18.537a5.14 5.14 0 0 0-2.584.675 5.095 5.095 0 0 0-1.873 1.72h-.061v-7.161h-3.808v20.064h3.808v-8.94c0-.429.033-.828.156-1.136.398-1.136 1.443-2.121 2.92-2.121 2.085 0 2.883 1.63 2.883 3.81v8.387h3.782v-8.817c0-4.792-2.675-6.481-5.223-6.481M160.701 13.769h-4.393l-6.43 20.066h3.9l1.782-5.868h5.73l1.876 5.868h4.054L160.7 13.769zm-4.53 11.34l1.894-6.235h.667l1.912 6.235h-4.472zM175.799 49.965c1.018.521 2.583 1.042 4.199 1.042 1.735 0 2.654-.72 2.654-1.812 0-1.043-.793-1.64-2.805-2.36-2.782-.97-4.594-2.51-4.594-4.944 0-2.857 2.384-5.044 6.333-5.044 1.889 0 3.28.4 4.273.845l-.843 3.057a7.965 7.965 0 0 0-3.503-.795c-1.639 0-2.435.745-2.435 1.613 0 1.07.943 1.542 3.104 2.362 2.957 1.092 4.35 2.632 4.35 4.992 0 2.806-2.162 5.216-6.759 5.216-1.913 0-3.8-.52-4.745-1.043l.77-3.129zM191.174 53.864l-3.976-16.743h4.05l1.267 6.881c.374 2.014.72 4.174.994 5.862h.048c.277-1.813.671-3.824 1.094-5.887l1.416-6.856h4.025l1.343 7.056c.372 1.962.646 3.75.89 5.615h.053c.247-1.864.62-3.828.968-5.815l1.367-6.856h3.851l-4.323 16.743h-4.098l-1.417-7.203c-.323-1.689-.597-3.256-.796-5.167h-.048c-.302 1.887-.573 3.478-.97 5.167l-1.589 7.203h-4.15zM212.975 49.567l-1.193 4.298h-3.923l5.116-16.744h4.968l5.19 16.744h-4.07l-1.296-4.298h-4.792zm4.249-2.831l-1.044-3.554c-.298-.994-.6-2.236-.847-3.228h-.047c-.25.992-.498 2.258-.771 3.228l-.993 3.554h3.702zM224.64 53.864V37.12h4.423l3.48 6.137a48.236 48.236 0 0 1 2.731 5.738h.076c-.248-2.212-.323-4.473-.323-7.005v-4.87h3.479v16.743h-3.976l-3.577-6.458c-.995-1.79-2.088-3.95-2.906-5.912l-.074.024c.097 2.21.147 4.571.147 7.303v5.043h-3.48z"/><path class="st18" d="M164.95 59.37c.488-.1 1.378-.176 2.244-.176 1.14 0 1.842.138 2.42.54.527.313.877.865.877 1.58 0 .777-.488 1.492-1.403 1.83v.025c.89.226 1.705.927 1.705 2.094 0 .752-.327 1.342-.816 1.742-.601.527-1.592.79-3.134.79a14.83 14.83 0 0 1-1.894-.113V59.37zm1.528 3.335h.791c1.065 0 1.668-.502 1.668-1.216 0-.79-.603-1.154-1.58-1.154-.452 0-.715.025-.879.063v2.307zm0 3.886c.202.026.465.039.816.039.991 0 1.868-.377 1.868-1.417 0-.978-.852-1.38-1.918-1.38h-.766v2.758zM172.097 63.57c0-.828-.013-1.416-.051-1.968h1.342l.048 1.166h.052c.3-.866 1.015-1.305 1.667-1.305.15 0 .239.013.364.039v1.454a2.118 2.118 0 0 0-.452-.05c-.739 0-1.24.476-1.38 1.165-.024.138-.05.302-.05.477v3.16h-1.54V63.57zM182.24 64.598c0 2.245-1.58 3.247-3.137 3.247-1.729 0-3.057-1.19-3.057-3.146 0-2.007 1.315-3.236 3.16-3.236 1.816 0 3.033 1.28 3.033 3.135zm-4.602.063c0 1.179.576 2.069 1.517 2.069.877 0 1.491-.866 1.491-2.094 0-.953-.425-2.044-1.478-2.044-1.092 0-1.53 1.053-1.53 2.07zM183.492 63.42c0-.702-.013-1.292-.05-1.818h1.355l.075.915h.037c.263-.477.927-1.054 1.943-1.054 1.067 0 2.17.69 2.17 2.621v3.624h-1.543v-3.449c0-.877-.326-1.541-1.166-1.541-.614 0-1.04.438-1.203.902a1.58 1.58 0 0 0-.063.503v3.585h-1.555V63.42zM190.075 66.817l2.295-2.934c.313-.375.575-.676.902-1.027v-.026h-2.97v-1.228h4.851v.94l-2.245 2.872c-.3.362-.589.714-.902 1.04v.025h3.221v1.229h-5.152v-.891zM197.284 65.087c.037 1.103.902 1.58 1.88 1.58.715 0 1.23-.1 1.693-.276l.226 1.066c-.526.212-1.254.376-2.13.376-1.982 0-3.148-1.216-3.148-3.084 0-1.693 1.028-3.286 2.983-3.286 1.982 0 2.634 1.63 2.634 2.973 0 .287-.025.513-.05.651h-4.088zm2.684-1.078c.012-.565-.239-1.492-1.267-1.492-.954 0-1.354.865-1.417 1.492h2.684zM206.987 65.313l-.726 2.395h-1.593l2.708-8.45h1.97l2.745 8.45h-1.655l-.766-2.395h-2.683zm2.421-1.166l-.664-2.082c-.164-.514-.302-1.09-.427-1.58h-.026c-.124.49-.25 1.079-.4 1.58l-.653 2.082h2.17zM213.782 61.602l.64 2.77c.138.652.276 1.317.39 1.982h.025c.125-.665.325-1.342.5-1.97l.79-2.782h1.255l.763 2.707c.189.715.352 1.38.49 2.045h.025c.1-.665.238-1.33.401-2.045l.676-2.707h1.518l-1.918 6.106h-1.429l-.727-2.483a18.525 18.525 0 0 1-.464-1.956h-.025c-.126.753-.289 1.354-.465 1.956l-.777 2.483h-1.441l-1.807-6.106h1.58zM225.594 67.708l-.102-.678h-.037c-.375.477-1.016.815-1.805.815-1.23 0-1.918-.89-1.918-1.818 0-1.542 1.366-2.318 3.623-2.306v-.1c0-.402-.164-1.067-1.242-1.067-.601 0-1.227.188-1.641.452l-.301-1.003c.451-.275 1.241-.54 2.206-.54 1.957 0 2.52 1.242 2.52 2.57v2.207c0 .552.025 1.091.09 1.468h-1.393zm-.201-2.985c-1.09-.024-2.132.214-2.132 1.141 0 .602.39.879.878.879.614 0 1.065-.402 1.204-.84.037-.113.05-.24.05-.34v-.84zM228.515 63.57c0-.828-.013-1.416-.051-1.968h1.343l.048 1.166h.051c.3-.866 1.016-1.305 1.668-1.305.15 0 .238.013.363.039v1.454a2.12 2.12 0 0 0-.452-.05c-.739 0-1.24.476-1.378 1.165a2.535 2.535 0 0 0-.051.477v3.16h-1.541V63.57zM238.481 58.806v7.184c0 .627.026 1.304.051 1.718h-1.38l-.061-.965h-.026c-.364.676-1.104 1.102-1.994 1.102-1.455 0-2.607-1.24-2.607-3.122-.013-2.043 1.266-3.26 2.733-3.26.84 0 1.443.352 1.718.803h.025v-3.46h1.541zm-1.54 5.341c0-.125-.014-.276-.039-.402-.137-.601-.627-1.09-1.329-1.09-.991 0-1.543.877-1.543 2.018 0 1.117.552 1.932 1.53 1.932.627 0 1.18-.427 1.33-1.092.037-.137.05-.288.05-.451v-.915z"/><path class="st19" d="M111.088 20.991l18.924-7.511s2.823-1.58 7.755 6.929c4.932 8.504 8.31 13.371 8.31 13.371s3.943 5.451 7.055 4.33c3.113-1.12-19.403 7.704-19.403 7.704s-3.424.898-7.094-6.386c-3.67-7.281-5.778-10.354-7.047-12.153-1.27-1.793-4.73-7.434-8.5-6.284"/><g class="st20"><path class="st0" d="M126.568 35.452h8.733v10.396h-8.733z"/><path class="st3" d="M126.568 39.298l.067.132c3.027 6.003 5.884 6.447 6.794 6.418l1.873-10.396c-.876 3.3-5.963 3.712-8.734 3.846"/></g><path class="st21" d="M133.566 31.543l-2.922 20.149s-.042 3.23-9.874 3.265c-9.833.037-15.737.535-15.737.535s-6.69.7-7.271 3.957c-.581 3.258 3-20.658 3-20.658s.928-3.417 9.07-2.965c8.144.45 11.859.153 14.05-.05 2.19-.206 8.803-.392 9.684-4.233"/><g class="st20"><path class="st0" d="M103.98 35.782h12.427v9.674H103.98z"/><path class="st3" d="M115.907 45.457c-2.497-2.25-.648-6.847.5-9.403-1.8-.018-3.956-.086-6.576-.23-2.637-.144-4.513.115-5.851.534l11.927 9.099z"/></g><path class="st3" d="M113.125 46.299L96.938 33.947s-2.806-1.601 1.945-10.21c4.75-8.613 7.18-14.016 7.18-14.016s2.642-6.186.077-8.278c-2.565-2.091 16.598 12.663 16.598 12.663s2.534 2.472-1.817 9.37c-4.354 6.897-5.9 10.288-6.785 12.298-.886 2.014-3.937 7.886-1.011 10.525"/><g class="st20"><path class="st0" d="M111.088 20.403h11.47v8.287h-11.47z"/><path class="st21" d="M122.558 20.402l-11.47 4.551c2.565-.784 4.99 1.58 6.675 3.737.848-1.473 1.88-3.19 3.158-5.215.722-1.145 1.251-2.163 1.637-3.073"/></g><path class="st19" d="M119.588 27.275c.805 1.14 1.95 2.802 3.616 5.717 3.74-5.276 8.694-9.659 15.22-11.452-.217-.372-.435-.745-.657-1.134-4.932-8.504-7.755-6.925-7.755-6.925l-18.924 7.512c3.767-1.152 7.23 4.488 8.5 6.282"/></svg>