<svg xmlns="http://www.w3.org/2000/svg" width="24" height="24" viewBox="0 0 24 24">
    <g fill="none" fill-rule="evenodd">
        <path fill="#24B2FA" d="M12 0c6.627 0 12 5.373 12 12s-5.373 12-12 12S0 18.627 0 12 5.373 0 12 0"/>
        <path fill="#FFF" d="M18.322 9.707c.15 3.9-2.775 8.25-7.875 8.25-1.575 0-3-.45-4.276-1.275 1.5.15 2.926-.225 4.126-1.125-1.2 0-2.25-.825-2.625-1.95.45.075.9.075 1.275-.075-1.35-.3-2.25-1.5-2.25-2.775.375.225.825.3 1.274.375-1.274-.825-1.575-2.475-.824-3.75 1.35 1.65 3.45 2.775 5.7 2.925-.375-1.725.9-3.45 2.7-3.45.824 0 1.5.375 2.024.9.6-.15 1.2-.375 1.8-.675-.224.675-.674 1.2-1.2 1.575.6-.075 1.126-.225 1.576-.45-.376.675-.9 1.125-1.425 1.5"/>
    </g>
</svg>
