<svg xmlns="http://www.w3.org/2000/svg" width="24" height="24" viewBox="0 0 24 24">
    <g fill="none" fill-rule="evenodd">
        <path fill="#24B2FA" d="M11.667 0c6.443 0 11.666 5.223 11.666 11.667 0 6.443-5.223 11.666-11.666 11.666C5.223 23.333 0 18.11 0 11.667 0 5.223 5.223 0 11.667 0z"/>
        <path fill="#FFF" d="M5.98 17.351H8.53V9.112H5.98zM7.292 4.955a1.531 1.531 0 1 1 0 3.063 1.531 1.531 0 0 1 0-3.063M18.156 17.424h-2.552V13.05c0-1.24-.437-1.823-1.385-1.823-1.02 0-1.531.656-1.531 1.823v4.375h-2.48v-8.24h2.48v1.094s.729-1.385 2.479-1.385 2.99 1.094 2.99 3.281v5.25z"/>
    </g>
</svg>
