<svg xmlns="http://www.w3.org/2000/svg" viewBox="0 0 863.41 206.09"><defs><style>.cls-1{fill:#cbcbcb;}.cls-2{fill:#fff;}.cls-3{fill:#eee;}</style></defs><title>bytom</title><g id="图层_2" data-name="图层 2"><g id="图层_1-2" data-name="图层 1"><rect class="cls-1" x="543.23" y="57.87" width="23.23" height="109.65"/><rect class="cls-1" x="418.17" y="98.21" width="23.23" height="69.31"/><rect class="cls-1" x="264.34" y="42.22" width="23.23" height="125.3"/><circle class="cls-1" cx="674.72" cy="104.91" r="14.16"/><rect class="cls-2" x="504.27" y="42.22" width="101.14" height="23.23"/><polygon class="cls-2" points="473.06 41.12 430.35 83.82 388.76 42.23 372.33 58.65 430.35 116.67 446.78 100.25 489.49 57.54 473.06 41.12"/><polygon class="cls-1" points="754.94 165.23 778.17 165.23 778.17 78.08 754.94 54.85 754.94 165.23"/><polygon class="cls-1" points="840.18 78.04 840.18 164.67 863.4 164.67 863.4 54.81 840.18 78.04"/><polygon class="cls-2" points="861.65 45.16 840.22 45.16 840.18 45.19 809.16 76.22 778.17 45.23 778.1 45.16 757.02 45.16 754.94 47.23 754.94 54.85 778.17 78.08 792.73 92.64 809.16 109.06 825.58 92.64 840.18 78.04 863.4 54.81 863.4 46.91 861.65 45.16"/><polygon class="cls-2" points="369.65 81.87 369.52 81.74 369.65 81.62 330.26 42.23 330.25 42.23 330.25 42.22 297.05 42.22 297.05 65.45 320.63 65.45 336.93 81.74 325.42 93.26 297.05 93.26 297.05 116.48 325.11 116.48 336.78 128.15 320.64 144.29 297.05 144.29 297.05 167.52 330.25 167.52 330.25 167.51 330.26 167.52 353.2 144.58 353.23 144.6 369.65 128.18 369.62 128.15 369.65 128.13 353.23 111.7 353.2 111.73 346.5 105.03 369.65 81.87"/><path class="cls-2" d="M674.72,174.16,621,139.68V70.14l53.77-34.48,53.77,34.48v69.54ZM642.41,128l32.31,20.72L707,128V81.87L674.72,61.15,642.41,81.87Z"/><polygon class="cls-1" points="71.36 31.75 127.44 87.83 79.87 0 40.11 40.13 71.36 31.75"/><polygon class="cls-1" points="134.73 174.34 78.64 118.25 126.22 206.09 165.97 165.97 134.73 174.34"/><polygon class="cls-1" points="31.76 134.72 67.71 58.51 12.68 113.55 0 126.22 40.13 165.97 31.76 134.72"/><polygon class="cls-1" points="174.34 71.35 118.25 127.44 206.09 79.86 165.97 40.11 174.34 71.35"/><polygon class="cls-2" points="147.57 67.7 92.54 12.68 79.87 0 127.44 87.83 147.57 67.7"/><polygon class="cls-2" points="58.51 138.38 126.22 206.09 78.64 118.25 58.51 138.38"/><polygon class="cls-2" points="87.84 78.64 67.71 58.51 31.76 134.72 87.84 78.64"/><polygon class="cls-2" points="138.38 147.57 206.09 79.86 118.25 127.44 138.38 147.57"/><polygon class="cls-3" points="16.89 16.88 0 79.87 34.42 61.4 16.89 16.88"/><polygon class="cls-3" points="189.2 189.21 206.09 126.22 171.68 144.68 189.2 189.21"/><polygon class="cls-3" points="16.89 189.2 79.87 206.08 61.4 171.66 16.89 189.2"/><polygon class="cls-3" points="189.22 16.88 126.22 0 144.68 34.41 189.22 16.88"/><polygon class="cls-2" points="40.11 40.13 79.87 0 16.89 16.88 34.42 61.4 40.11 40.13"/><polygon class="cls-2" points="165.97 165.97 126.22 206.09 189.2 189.21 171.68 144.68 165.97 165.97"/><polygon class="cls-2" points="40.13 165.97 0 126.22 16.89 189.2 61.4 171.66 40.13 165.97"/><polygon class="cls-2" points="165.97 40.11 206.09 79.86 189.22 16.88 144.68 34.41 165.97 40.11"/><polygon class="cls-1" points="34.42 61.4 0 79.87 7.97 87.84 34.42 61.4"/><polygon class="cls-1" points="171.68 144.68 206.09 126.22 198.11 118.25 171.68 144.68"/><polygon class="cls-1" points="79.87 206.08 87.85 198.11 61.4 171.66 79.87 206.08"/><polygon class="cls-1" points="126.22 0 118.25 7.98 144.68 34.41 126.22 0"/></g></g></svg>