<svg id="图层_1" data-name="图层 1" xmlns="http://www.w3.org/2000/svg" viewBox="0 0 1844.79 469.04"><defs><style>.cls-1{fill:#e32c28;}.cls-2{fill:#fff;}.cls-3{fill:#2e2e2e;}</style></defs><title>8btc</title><g id="Page-1"><g id="_8btc" data-name="8btc"><g id="Logo_Appstore_1024x1024_Template_15" data-name="Logo Appstore 1024x1024 Template 15"><g id="Mask_Group_3" data-name="Mask Group 3"><rect id="Rectangle_9" data-name="Rectangle 9" class="cls-1" width="469.04" height="469.04" rx="100" ry="100"/></g><path id="Union_1" data-name="Union 1" class="cls-2" d="M75.5,259.38V245.9a.47.47,0,0,0-.44-.44H54.41c-.44,0-.44-.43-.22-.65l65.66-65.65a.4.4,0,0,1,.38-.07.44.44,0,0,1,.27.28v76.31c0,61.53,47.39,114.79,108.7,117.4A114,114,0,0,0,348.33,259.16V179.37c0-.43.44-.43.66-.21l65.65,65.65c.22.44.22.65-.22.65H393.55a.48.48,0,0,0-.44.44V255c0,86.31-67.17,160-153.48,162.83-2,.07-3.91.11-5.86.11C146.43,418,75.5,347,75.5,259.38Zm134.78,63.91v-147c0-12,8.05-22.83,19.57-25a24.37,24.37,0,0,1,28.7,23.92V322c0,11.95-8,22.82-19.57,25a24.74,24.74,0,0,1-4.54.42,24.2,24.2,0,0,1-24.15-24.12Zm-15.21-97.61a93.37,93.37,0,0,1-43.27-43.05,91.88,91.88,0,0,1,43-122.17c45.65-21.74,100.44-2.4,122.18,43a91.38,91.38,0,0,1-43,122,4.23,4.23,0,0,1-1.52.44,3.45,3.45,0,0,1-3.48-3.48v-38a18.31,18.31,0,0,1,3.7-11.52,48.36,48.36,0,1,0-82-50.22c-8,16.52-4.13,35.87,6.3,51.09a17.26,17.26,0,0,1,3,9.78v39.13a4,4,0,0,1-.43,1.52,3.34,3.34,0,0,1-3,1.91,3.62,3.62,0,0,1-1.58-.39Z" transform="translate(0 -0.23)"/></g><g id="Group_1100" data-name="Group 1100"><path id="Path_1186" data-name="Path 1186" class="cls-3" d="M1397.09,139.23h-88.4a212.8,212.8,0,0,1,96-69.36l-6.8,13.88h26.93l14.42-28.56a23,23,0,0,1,20.67-12.79h62.83l-88.13,176a2.72,2.72,0,0,0,1.09,3.26c.27,0,.82.27,1.09.27h243.43l13.87-27.47h-216L1499.36,152A23,23,0,0,1,1520,139.23h93.84l13.87-27.74h-92.48l21.22-42.43a22.67,22.67,0,0,1,20.67-12.79h78.33l7.35-15a23,23,0,0,1,20.67-12.78H1745l1.36.55L1733,56h92.48l-22.3,42.44a22.94,22.94,0,0,1-20.67,12.78h-78.34L1690.3,139h154.49l-21.21,42.44a23,23,0,0,1-20.67,12.78h-32.1l-13.88,27.47h77.25L1813,264.08a22.56,22.56,0,0,1-20.4,12.79h-63.1L1653,429.73a22.66,22.66,0,0,1-20.68,12.78H1414.22a2.14,2.14,0,0,1-1.55-.63,2.19,2.19,0,0,1-.63-1.55v-47.6a23.15,23.15,0,0,1,2.45-10.33l32.64-65.28a22.67,22.67,0,0,1,20.68-12.79h114.78l-38.35,38.08a45.86,45.86,0,0,1-32.64,13.33h-6.8l-10.34,20.94a2.3,2.3,0,0,0,1.09,3c.27,0,.82.27,1.09.27h90a23.26,23.26,0,0,0,20.67-12.79l45.42-90.84H1414a13.6,13.6,0,0,0-12.24,7.61l-72.62,145.25A23,23,0,0,1,1308.42,442H1072.6a2.19,2.19,0,0,1-1.55-.63,2.14,2.14,0,0,1-.63-1.55v-47.6a23.06,23.06,0,0,1,2.45-10.34L1167,193.36v-.27l69.36-138.72A22.93,22.93,0,0,1,1257,41.59h62.83L1244,193.36h105l-35.35,35.09a92.05,92.05,0,0,1-65,26.93h-35.9l-60.39,121a2.29,2.29,0,0,0,1.09,3c.27,0,.82.27,1.09.27h107.71a23.28,23.28,0,0,0,20.67-12.79l82.69-165.37Z" transform="translate(0 -0.23)"/><path id="Path_1187" data-name="Path 1187" class="cls-3" d="M1166.71,194.18l-35.09,35.08a92.05,92.05,0,0,1-65,26.93h-23.39L956.45,429.73a22.63,22.63,0,0,1-20.67,12.78H531.05a2.12,2.12,0,0,1-1.54-.63,2.14,2.14,0,0,1-.63-1.55V241a23.06,23.06,0,0,1,2.45-10.34L626,41.05a22.54,22.54,0,0,1,20.4-12.79h364.2a6.26,6.26,0,0,1,2.17.55,4.46,4.46,0,0,1,1.9,6.25l-118,236.09a22.56,22.56,0,0,1-20.4,12.79H619.72a13.93,13.93,0,0,0-13.87,13.87v80.51a2.46,2.46,0,0,0,2.45,2.45H889.82A23.28,23.28,0,0,0,910.49,368l156.4-312.8a22.93,22.93,0,0,1,20.67-12.78h62.56l-75.89,151.78ZM850.65,208.87,913.21,83.48h-63.1a22.53,22.53,0,0,0-20.4,12.78L767.15,221.65H830A22.94,22.94,0,0,0,850.65,208.87Zm-154.5,0L758.71,83.48H695.88a23.25,23.25,0,0,0-20.67,12.78L612.65,221.65h62.83A22.63,22.63,0,0,0,696.15,208.87Z" transform="translate(0 -0.23)"/></g></g></g></svg>