<svg id="图层_1" data-name="图层 1" xmlns="http://www.w3.org/2000/svg" viewBox="0 0 1844.79 469.04"><defs><style>.cls-1{fill:#fff;}</style></defs><title>8btc_light</title><g id="Page-1"><g id="_8btc" data-name=" 8btc"><path class="cls-1" d="M369,0H100A100,100,0,0,0,0,100V369A100,100,0,0,0,100,469H369A100,100,0,0,0,469,369V100A100,100,0,0,0,369,0ZM194.8,60.23c45.65-21.74,100.44-2.4,122.18,43a91.37,91.37,0,0,1-42.84,121.92l-.16.08a4.23,4.23,0,0,1-1.52.44,3.44,3.44,0,0,1-3.48-3.42V184.19a18.31,18.31,0,0,1,3.7-11.52,48.36,48.36,0,1,0-82-50.22c-8,16.52-4.13,35.87,6.3,51.09a17.23,17.23,0,0,1,3,9.78v39.13a4,4,0,0,1-.43,1.52,3.35,3.35,0,0,1-3,1.91,3.62,3.62,0,0,1-1.58-.39l.1,0a93.37,93.37,0,0,1-43.27-43A91.87,91.87,0,0,1,194.8,60.23ZM258.55,175V321.77c0,12-8,22.82-19.57,25a24.74,24.74,0,0,1-4.54.42,24.2,24.2,0,0,1-24.15-24.12h0v-147c0-12,8.05-22.83,19.57-25a24.37,24.37,0,0,1,28.31,19.65A23.55,23.55,0,0,1,258.55,175Zm155.87,70.25H393.55a.49.49,0,0,0-.44.44v9.1c0,86.31-67.17,160-153.48,162.83-2,.07-3.91.11-5.86.11-87.34.06-158.27-70.94-158.27-158.56V245.67a.46.46,0,0,0-.44-.44H54.41c-.44,0-.44-.43-.22-.65l65.66-65.65a.4.4,0,0,1,.38-.07.44.44,0,0,1,.27.28v76.31c0,61.53,47.39,114.79,108.7,117.4a114,114,0,0,0,119-108.75c.08-1.73.12-3.45.12-5.17V179.14c0-.43.44-.43.66-.21l65.65,65.65C414.86,245,414.86,245.23,414.42,245.23Z" transform="translate(0 0)"/><g id="Group_1100" data-name="Group 1100"><path id="Path_1186" data-name="Path 1186" class="cls-1" d="M1397.09,139h-88.4a212.77,212.77,0,0,1,96-69.36l-6.8,13.88h26.93L1439.24,55a23,23,0,0,1,20.67-12.79h62.83l-88.13,176a2.72,2.72,0,0,0,1.09,3.26c.27,0,.82.27,1.09.27h243.43l13.87-27.47h-216l21.27-42.46A23,23,0,0,1,1520,139h93.84l13.87-27.74h-92.48l21.22-42.43A22.67,22.67,0,0,1,1577.12,56h78.33l7.35-15a23,23,0,0,1,20.67-12.78H1745l1.36.55-13.36,27h92.48l-22.3,42.44A22.93,22.93,0,0,1,1782.51,111h-78.34l-13.87,27.78h154.49l-21.21,42.44A23,23,0,0,1,1802.91,194h-32.1l-13.88,27.47h77.25L1813,263.85a22.55,22.55,0,0,1-20.4,12.79h-63.1L1653,429.5a22.66,22.66,0,0,1-20.68,12.78h-218.1a2.14,2.14,0,0,1-1.55-.63,2.19,2.19,0,0,1-.63-1.55V392.5a23.15,23.15,0,0,1,2.45-10.33l32.64-65.28a22.67,22.67,0,0,1,20.68-12.79h114.78l-38.35,38.08a45.86,45.86,0,0,1-32.64,13.33h-6.8l-10.34,20.94a2.3,2.3,0,0,0,1.09,3c.27,0,.82.27,1.09.27h90a23.26,23.26,0,0,0,20.67-12.79l45.42-90.84H1414a13.6,13.6,0,0,0-12.24,7.61L1329.14,429a23,23,0,0,1-20.72,12.82H1072.6a2.19,2.19,0,0,1-1.55-.63,2.14,2.14,0,0,1-.63-1.55V392a23.06,23.06,0,0,1,2.45-10.34L1167,193.13v-.27l69.36-138.72A22.93,22.93,0,0,1,1257,41.36h62.83L1244,193.13h105l-35.35,35.09a92.07,92.07,0,0,1-65,26.93h-35.9l-60.39,121a2.28,2.28,0,0,0,1.09,3c.27,0,.82.27,1.09.27h107.71a23.26,23.26,0,0,0,20.67-12.79l82.69-165.37Z" transform="translate(0 0)"/><path id="Path_1187" data-name="Path 1187" class="cls-1" d="M1166.71,194,1131.62,229a92.07,92.07,0,0,1-65,26.93h-23.39L956.45,429.5a22.63,22.63,0,0,1-20.67,12.78H531.05a2.12,2.12,0,0,1-1.54-.63,2.14,2.14,0,0,1-.63-1.55V240.77a23.06,23.06,0,0,1,2.45-10.34L626,40.82A22.54,22.54,0,0,1,646.4,28h364.2a6.26,6.26,0,0,1,2.17.55,4.46,4.46,0,0,1,2.05,6,2.64,2.64,0,0,1-.15.29l-118,236.09a22.55,22.55,0,0,1-20.4,12.79H619.72a13.92,13.92,0,0,0-13.87,13.87v80.51a2.47,2.47,0,0,0,2.45,2.45H889.82a23.29,23.29,0,0,0,20.67-12.77L1066.89,55a22.93,22.93,0,0,1,20.67-12.78h62.56L1074.23,194ZM850.65,208.64,913.21,83.25h-63.1A22.53,22.53,0,0,0,829.71,96L767.15,221.42H830A23,23,0,0,0,850.65,208.64Zm-154.5,0L758.71,83.25H695.88A23.24,23.24,0,0,0,675.21,96L612.65,221.42h62.83A22.63,22.63,0,0,0,696.15,208.64Z" transform="translate(0 0)"/></g></g></g></svg>