<?xml version="1.0" encoding="utf-8"?>
<!-- Generator: Adobe Illustrator 22.1.0, SVG Export Plug-In . SVG Version: 6.00 Build 0)  -->
<svg version="1.1" id="图层_1" xmlns="http://www.w3.org/2000/svg" xmlns:xlink="http://www.w3.org/1999/xlink" x="0px" y="0px"
	 viewBox="0 0 2632.3 751.5" style="enable-background:new 0 0 2632.3 751.5;" xml:space="preserve">
<style type="text/css">
	.st0{fill:#FFFFFF;}
</style>
<title>时戳</title>
<g id="图层_2_1_">
	<g id="图层_1-2">
		<path class="st0" d="M380.4,227.4V0L0,165.1v438.1l300.9,130.6l40.8,17.7l38.7-19L647.2,602V301.2L380.4,227.4z M300.9,647.2
			L79.5,551.1V217.2l221.4-96V647.2z M567.7,552.4l-187.3,91.7V309.9l187.3,51.8V552.4z"/>
		<path class="st0" d="M774.7,577.8h89.5v16.7H829v93.8h-19.3v-93.8h-35L774.7,577.8z"/>
		<path class="st0" d="M894.5,577.8h19.3v110.5h-19.3V577.8z"/>
		<path class="st0" d="M954.7,577.8H982l30.5,86.5h0.3l29.7-86.5h26.9v110.5H1051V603h-0.3l-30.7,85.3h-15.9L973.4,603h-0.3v85.3
			h-18.4V577.8z"/>
		<path class="st0" d="M1110.1,577.8h79.6v16.7h-60.2v28.9h55.7v15.8h-55.7v32.3h61.3v16.7h-80.6V577.8z"/>
		<path class="st0" d="M1237.8,651.5c-0.1,3.7,0.6,7.4,2.2,10.8c1.4,2.9,3.4,5.4,6,7.4c2.7,1.9,5.7,3.4,8.9,4.2
			c3.6,0.9,7.2,1.3,10.9,1.3c3.7,0.1,7.3-0.4,10.8-1.5c2.6-0.8,5.1-2.1,7.3-3.8c1.7-1.4,3.1-3.3,4-5.3c0.8-1.9,1.2-4,1.2-6.1
			c0-4.2-1-7.4-2.9-9.4c-1.7-1.9-3.9-3.3-6.3-4.3c-4.5-1.6-9.1-3-13.7-4.1c-5.2-1.3-11.6-3-19.3-5c-4.2-1-8.2-2.6-11.8-4.9
			c-2.9-1.8-5.4-4.1-7.5-6.7c-1.8-2.4-3.2-5-4-7.9c-0.8-2.8-1.2-5.6-1.2-8.5c-0.1-5,1.1-10,3.5-14.5c2.3-4,5.4-7.5,9.2-10.1
			c3.9-2.8,8.3-4.8,13-6c4.8-1.3,9.7-1.9,14.7-1.9c5.5,0,11,0.7,16.3,2.2c4.9,1.4,9.4,3.7,13.5,6.7c8.2,6.2,12.9,16,12.6,26.3H1286
			c-0.5-7.1-2.9-12.2-7.3-15.1s-9.8-4.4-16.4-4.4c-2.4,0-4.7,0.2-7,0.7c-2.3,0.4-4.5,1.2-6.5,2.3c-1.9,1.1-3.6,2.6-4.9,4.4
			c-1.4,2.1-2,4.5-1.9,7c0,3.9,1.2,7,3.6,9.2c2.7,2.4,6,4.1,9.5,5c0.4,0.1,2,0.5,4.9,1.3s6,1.6,9.5,2.5l10.3,2.7
			c3.4,0.9,5.8,1.5,7.2,1.9c3.4,1,6.6,2.6,9.4,4.6c2.6,1.9,4.9,4.1,6.7,6.7c1.8,2.5,3.1,5.2,4,8.1c0.9,2.8,1.3,5.7,1.3,8.7
			c0.2,5.5-1.2,11-3.8,15.9c-2.5,4.3-5.9,8-10,10.8c-4.3,2.8-9,4.9-14,6c-5.3,1.3-10.7,1.9-16.1,1.9c-6,0-12-0.7-17.8-2.3
			c-5.3-1.4-10.2-3.8-14.6-7.1c-4.2-3.3-7.6-7.5-9.9-12.3c-2.6-5.5-3.9-11.6-3.9-17.7L1237.8,651.5z"/>
		<path class="st0" d="M1332.4,577.8h89.5v16.7h-35.1v93.8h-19.3v-93.8h-35L1332.4,577.8z"/>
		<path class="st0" d="M1467.5,577.8h20.6l42.6,110.5h-20.7l-10.4-29.3h-44.1l-10.4,29.3h-20L1467.5,577.8z M1460.7,644.4h33.7
			l-16.6-47.5h-0.5L1460.7,644.4z"/>
		<path class="st0" d="M1558.4,577.8h27.2l30.5,86.5h0.3l29.7-86.5h26.9v110.5h-18.4V603h-0.3l-30.7,85.3h-15.9l-30.6-85.3h-0.3
			v85.3h-18.4L1558.4,577.8z"/>
		<path class="st0" d="M1713.8,577.8h48.8c7.8,0,14.2,1.1,19.2,3.4c4.4,1.9,8.4,4.8,11.4,8.5c2.6,3.3,4.5,7.1,5.5,11.1
			c0.9,3.6,1.4,7.4,1.5,11.2c0,3.7-0.5,7.4-1.5,11.1c-1,4-2.9,7.8-5.5,11.1c-3.1,3.7-7,6.6-11.4,8.4c-5,2.2-11.4,3.3-19.2,3.3h-29.4
			v42.4h-19.3V577.8z M1733.1,630.1h28.3c2.2,0,4.5-0.3,6.7-0.9c2.3-0.6,4.4-1.6,6.3-3c2-1.5,3.6-3.4,4.7-5.6
			c1.3-2.7,1.9-5.7,1.8-8.7c0.1-3.1-0.4-6.1-1.6-9c-0.9-2.2-2.3-4.1-4.2-5.7c-1.8-1.4-3.8-2.4-6-2.9c-2.4-0.5-4.8-0.8-7.3-0.8h-28.6
			L1733.1,630.1z"/>
		<path class="st0" d="M1969.7,612.9c-0.8-3.1-1.9-6-3.4-8.8c-2.9-5.4-7.7-9.5-13.6-11.5c-3.4-1.1-7-1.7-10.6-1.6
			c-5.3-0.1-10.6,1.1-15.2,3.6c-4.2,2.3-7.8,5.6-10.4,9.5c-2.8,4.1-4.8,8.7-6,13.5c-2.6,10.2-2.6,20.8,0,31c1.2,4.8,3.2,9.4,6,13.5
			c2.7,4,6.3,7.2,10.4,9.5c4.7,2.5,9.9,3.7,15.2,3.6c3.9,0.1,7.8-0.7,11.4-2.2c3.2-1.5,6.1-3.6,8.5-6.2c2.4-2.7,4.3-5.8,5.6-9.2
			c1.4-3.6,2.3-7.4,2.6-11.3h18.9c-0.3,6.2-1.8,12.4-4.2,18.1c-2.3,5.3-5.7,10.1-9.8,14.2c-4.2,4-9.1,7.1-14.6,9.2
			c-5.9,2.2-12.1,3.3-18.4,3.2c-7.6,0.1-15.2-1.4-22.2-4.6c-6.4-2.9-12.1-7.2-16.7-12.5c-4.6-5.4-8.2-11.7-10.4-18.4
			c-4.9-14.5-4.9-30.2,0-44.7c2.3-6.8,5.8-13,10.4-18.4c4.6-5.3,10.3-9.6,16.7-12.5c7-3.2,14.6-4.8,22.2-4.6
			c5.9,0,11.8,0.8,17.5,2.5c5.2,1.6,10.1,4.1,14.5,7.4c4.1,3.2,7.6,7.2,10.1,11.8c2.7,4.9,4.3,10.4,4.8,15.9H1969.7z"/>
		<path class="st0" d="M2053.9,577.8h20.6l42.5,110.5h-20.7l-10.4-29.3h-44.1l-10.4,29.3h-20L2053.9,577.8z M2047.1,644.4h33.8
			l-16.6-47.5h-0.5L2047.1,644.4z"/>
		<path class="st0" d="M2145,577.8h48.8c7.8,0,14.2,1.1,19.2,3.4c4.4,1.9,8.4,4.8,11.4,8.5c2.6,3.3,4.5,7.1,5.5,11.1
			c0.9,3.6,1.4,7.4,1.5,11.2c0,3.7-0.5,7.4-1.5,11.1c-1,4-2.9,7.8-5.5,11.1c-3.1,3.7-7,6.6-11.4,8.4c-5,2.2-11.4,3.3-19.2,3.3h-29.4
			v42.4H2145V577.8z M2164.4,630.1h28.3c2.3,0,4.5-0.3,6.7-0.9c2.3-0.6,4.4-1.6,6.3-3c2-1.5,3.6-3.4,4.6-5.6
			c1.3-2.7,1.9-5.7,1.8-8.7c0.1-3.1-0.4-6.1-1.6-9c-0.9-2.2-2.3-4.1-4.2-5.7c-1.8-1.4-3.8-2.4-6-2.9c-2.4-0.5-4.8-0.8-7.3-0.8h-28.6
			L2164.4,630.1z"/>
		<path class="st0" d="M2265.8,577.8h19.4v110.5h-19.4V577.8z"/>
		<path class="st0" d="M2315.8,577.8h89.5v16.7h-35.1v93.8h-19.4v-93.8h-35L2315.8,577.8z"/>
		<path class="st0" d="M2450.9,577.8h20.6l42.6,110.5h-20.7l-10.4-29.3h-44.1l-10.4,29.3h-20L2450.9,577.8z M2444.1,644.4h33.7
			l-16.6-47.5h-0.5L2444.1,644.4z"/>
		<path class="st0" d="M2542.1,577.8h19.4v93.8h56.2v16.7h-75.5V577.8z"/>
		<path class="st0" d="M923.2,392.3h-104v36h-50.4V89.9h154.4V392.3z M819.2,137.6v78.3h54v-78.3H819.2z M873.2,344.2v-81.5h-54
			v81.5H873.2z M1173.8,190.7H1128V404c0,32.4-6.8,46.4-27,54.9c-19.8,8.5-51.3,9.9-96.3,9.5c-2.2-14.9-10.8-38.7-18.9-54
			c31.5,1.4,64.8,1.4,74.2,1.4c9.9,0,13.5-3.1,13.5-12.6V190.7H940.3v-53.1h133.2V58h54.5v79.6h45.9L1173.8,190.7z M1008.7,346.4
			c-13.5-26.1-42.3-70.2-63.9-103l44.1-23.4c22,31,52.6,72.9,67,99L1008.7,346.4z"/>
		<path class="st0" d="M1650.4,247.4c-13.5,40.5-34.7,82.8-59.4,120.6c6.3,25.6,14,41,22,41.9c6.3,0,10.8-21.1,13-59
			c8.1,10.8,28.3,25.2,36.4,30.1c-11.2,75.1-32.8,91.8-50.8,91.4c-24.3-0.9-42.8-21.1-56.7-57.1c-16.4,19.5-34.8,37.1-54.9,52.6
			c-7.5-8.9-15.7-17-24.7-24.3v7.6h-154.8v18.5h-46.8V340.6c-4.5,5-8.6,9.9-13,14c-5-9.5-18.9-31.5-27.4-41.4
			c26.1-24.8,52.7-60.8,68-96.3l43.2,14.4c-3.6,7.6-7.7,15.8-12.2,23.9h37.8c-3.2-8.1-6.8-15.8-9.9-22.5l41.4-13.5
			c6.5,11.5,12.1,23.6,16.6,36h60.8v36h-63.9v18.5h54.4v31h-54.4v19.4h54v31.5h-54v21.1h60.3v10.8c23.4-16.6,45-39.1,64.8-64.4
			c-7.2-36.9-12.6-82.4-16.2-134.1l-30.6,4.5l-6.4-45.4l34.2-5c-1.8-37.8-3.2-78.8-4-121.9h49c0,40.1,0.9,79.2,2.7,115.7l86-12.1
			l5.4,45l-88.7,12.6c1.8,29.2,4.5,56.2,7.7,81c12.7-23.7,23.4-48.3,32-73.8L1650.4,247.4z M1239.1,181.3c12.2-4,27-9,43.2-15.3
			c-7.7-10.4-23-25.2-34.2-36.4l23-23.4c12.2,9.9,27.4,23.8,35.1,33.3l-23.4,26.6l32.8-12.6v-47.7h-68.8V67.4h112.5V220h-43.7v-28.8
			c-22.5,10.4-44.1,19.8-63.9,28.4L1239.1,181.3z M1369.2,291.1h-48.6v18.5h48.6V291.1z M1369.2,340.6h-48.6v19.4h48.6V340.6z
			 M1320.6,412.6h48.6v-21.2h-48.6V412.6z M1440.3,105.7h-43.2c11.7,9.9,25.6,22.5,32.8,31.1l-23.8,27c-7.2-10.4-23-25.6-34.2-36.4
			l21.2-21.6h-25.2V67.4h115.6v155.2h-43.2v-34.2c-22.5,9.9-44.5,19.8-64.8,28.8l-12.6-38.3c20.2-6.8,48.2-17.6,77.4-28.8V105.7z
			 M1610.4,154.7c-5.8-18.9-22-49.9-37.8-72.4l38.7-19.3c16.2,21.2,33.3,50.4,40.5,70.2L1610.4,154.7z"/>
		<path class="st0" d="M1962.7,328c-15.7,78.3-54.9,126-212.8,148c-3.6-12.1-14.8-33.8-23.8-45c142.7-15.3,171-47.7,184.5-103
			H1962.7z M1871.4,208.8c-42.3,15.8-87.8,31.9-124.7,44.6l-16.2-49c33.8-9,83.7-25.2,131.8-41.4L1871.4,208.8z M1834,152
			c-19.8-15.3-59.8-37.3-90.4-49.5l26.6-36c30.2,10.8,71.1,30.2,91.8,45.4L1834,152z M2036.5,386v-69.7h-199.3V391h-52.7V267.7
			h307.8V386H2036.5z M2025.2,132.6c-1.3,4.5-2.7,9-4,13.1c23,36.9,65.7,63.9,119.7,75.2c-10.8,9.4-24.8,28.4-31,41.9
			c-45.9-14-82.3-39.6-108-74.2c-20.7,32.9-54.9,59.9-114.3,78.8c-5-11.7-17.6-29.7-27.4-38.7c74.7-20.7,99.9-56.2,112.1-95.8h-35.1
			c-12.9,20.1-28.8,38-47.2,53.1c-8.1-11.2-25.7-27.4-36.9-33.3c31.3-23.7,54.4-56.6,66.2-94.1l50.4,7.7c-3.2,9-7.2,18.5-10.8,27.5
			h127.8l9-2.2l39.1,9.4c-9.4,26.6-21.1,56.2-31.5,76.5l-46.8-12.1c3.6-9,8.1-20.2,12.1-32.4L2025.2,132.6z M1969,375.6
			c51.3,13,126.9,37.8,166.5,55.4l-33.3,42.3c-36.4-17.1-110.7-44.5-164.2-59.9L1969,375.6z"/>
		<path class="st0" d="M2505.9,196.6c28.4,65.7,73.8,127.4,126.4,162.9c-13.9,10.8-32.9,32-42.3,46.8c-17.1-13-32.9-28.8-47.7-46.4
			v39.1h-92.7v76h-56.7v-76h-94.5V359c-15.4,18.1-32.4,34.6-50.9,49.5c-9.4-13.5-26.6-33.8-39.1-43.6c52.2-36,98.1-100.4,126-168.3
			h-110.3v-54.4h168.8V55.3h56.7v86.8h169.6v54.4H2505.9z M2392.9,344.6v-148h-3.1c-19.8,54.9-47.2,105.8-79.6,148H2392.9z
			 M2529.7,344.6c-31.9-42.3-58.5-93.1-78.3-148h-1.8v148H2529.7z"/>
	</g>
</g>
</svg>
