<?xml version="1.0" encoding="UTF-8"?>
<svg width="24px" height="24px" viewBox="0 0 24 24" version="1.1" xmlns="http://www.w3.org/2000/svg" xmlns:xlink="http://www.w3.org/1999/xlink">
    <!-- Generator: Sketch 49 (51002) - http://www.bohemiancoding.com/sketch -->
    <title>Group 7</title>
    <desc>Created with Sketch.</desc>
    <defs></defs>
    <g id="Symbols" stroke="none" stroke-width="1" fill="none" fill-rule="evenodd">
        <g id="Footer-light" transform="translate(-1232.000000, -23.000000)">
            <g id="Footer" transform="translate(24.000000, 0.000000)">
                <g id="Group-7" transform="translate(1208.000000, 23.000000)">
                    <path d="M11.9563886,23.9979429 C18.3973029,23.9979429 23.6190171,18.7769143 23.6190171,12.3353143 C23.6190171,5.89508571 18.3973029,0.672685714 11.9563886,0.672685714 C5.51547429,0.672685714 0.29376,5.89508571 0.29376,12.3353143 C0.29376,18.7769143 5.51547429,23.9979429 11.9563886,23.9979429" id="Fill-9" fill="#24B2FA"></path>
                    <path d="M9.14290286,10.3606629 L10.3483886,10.3606629 L10.3483886,9.18877714 C10.3483886,8.67243429 10.3614171,7.87494857 10.7371886,7.38192 C11.13216,6.85940571 11.6752457,6.50352 12.6085029,6.50352 C14.1294171,6.50352 14.7698743,6.72089143 14.7698743,6.72089143 L14.4688457,8.50717714 C14.4688457,8.50717714 13.9662171,8.36180571 13.4971886,8.36180571 C13.02816,8.36180571 12.6085029,8.52980571 12.6085029,8.99883429 L12.6085029,10.3606629 L14.5312457,10.3606629 L14.3975314,12.10512 L12.6085029,12.10512 L12.6085029,18.1668343 L10.3483886,18.1668343 L10.3483886,12.10512 L9.14290286,12.10512 L9.14290286,10.3606629 Z" id="Fill-11" fill="#FFFFFF"></path>
                </g>
            </g>
        </g>
    </g>
</svg>