<svg xmlns="http://www.w3.org/2000/svg" width="24" height="25" viewBox="0 0 24 25">
    <g fill="none" fill-rule="evenodd">
        <path fill="#24B2FA" d="M12.207 24.097c6.464 0 11.705-5.24 11.705-11.705 0-6.463-5.24-11.704-11.705-11.704C5.743.688.503 5.928.503 12.392c0 6.465 5.24 11.705 11.704 11.705"/>
        <path fill="#FFF" d="M9.448 5.74c-.713.032-1.2.145-1.625.31-.44.171-.814.4-1.186.773-.372.372-.6.745-.771 1.185-.166.426-.28.912-.312 1.624-.032.715-.04.942-.04 2.76 0 1.818.008 2.046.04 2.76.032.712.146 1.199.312 1.624.17.44.399.814.771 1.186s.745.601 1.186.772c.426.166.912.279 1.625.311.714.033.941.04 2.76.04 1.817 0 2.045-.007 2.759-.04.712-.032 1.2-.145 1.625-.31.44-.172.813-.4 1.185-.773.373-.372.601-.745.772-1.186.166-.425.28-.912.311-1.624.033-.714.04-.942.04-2.76 0-1.818-.007-2.045-.04-2.76-.032-.712-.145-1.198-.31-1.624-.172-.44-.4-.813-.773-1.185a3.277 3.277 0 0 0-1.185-.773c-.426-.165-.913-.278-1.625-.31-.714-.033-.942-.041-2.76-.041-1.818 0-2.045.008-2.76.04m.056 12.102c-.653-.03-1.007-.14-1.243-.23a2.07 2.07 0 0 1-.77-.502 2.062 2.062 0 0 1-.5-.769c-.092-.236-.201-.59-.231-1.243-.032-.706-.04-.918-.04-2.704 0-1.788.008-2 .04-2.706.03-.652.139-1.006.23-1.242.122-.313.267-.536.501-.77a2.08 2.08 0 0 1 .77-.5c.236-.092.59-.201 1.243-.231.705-.032.917-.039 2.704-.039 1.787 0 2 .007 2.705.039.653.03 1.007.139 1.243.23.313.122.535.267.77.501.234.234.379.457.5.77.091.236.2.59.23 1.242.033.706.04.918.04 2.706 0 1.786-.007 1.998-.04 2.704-.03.653-.139 1.007-.23 1.243a2.07 2.07 0 0 1-.5.77c-.235.234-.457.379-.77.5-.236.092-.59.2-1.243.23-.706.033-.918.04-2.705.04s-1.999-.007-2.704-.04m5.474-9.021a.803.803 0 1 0 1.607.001.803.803 0 0 0-1.607-.001M8.77 12.393a3.437 3.437 0 1 0 6.875-.002 3.437 3.437 0 0 0-6.875.002m1.206 0a2.231 2.231 0 1 1 4.463-.001 2.231 2.231 0 0 1-4.463 0"/>
    </g>
</svg>
