<?xml version="1.0" encoding="utf-8"?>
<svg width="445px" height="110px" viewBox="0 0 445 110" version="1.1" xmlns="http://www.w3.org/2000/svg">
  <title>Logo</title>
  <desc>Created with Sketch.</desc>
  <defs>
    <linearGradient x1="-4.290297241210937" y1="0.5" x2="0.5" y2="0.5" id="linearGradient-1">
      <stop stop-color="#81E3FF" offset="0"/>
      <stop stop-color="#4AC2FF" offset="1"/>
    </linearGradient>
  </defs>
  <g id="Logo" stroke="none" stroke-width="1" fill="none" fill-rule="evenodd">
    <g id="Artboard" transform="translate(-947.000000, -629.000000)">
      <g id="Logo" transform="translate(947.000000, 629.000000)">
        <g id="Page-1" transform="translate(122.000000, 25.000000)" fill-rule="nonzero">
          <path shape-rendering="geometricPrecision" d="M 322.972 38.588 C 322.872 39.103 322.799 39.624 322.668 40.131 C 321.688 43.926 319.31 46.063 315.355 46.596 C 310.074 47.308 304.782 47.389 299.492 46.662 C 296.128 46.2 294.022 44.368 293.243 41.085 C 292.897 39.627 292.803 38.11 292.579 36.515 L 300.506 36.515 C 300.638 37.356 300.751 38.184 300.901 39.007 C 301.142 40.331 301.956 41.163 303.262 41.405 C 306.313 41.971 309.386 41.979 312.44 41.453 C 313.58 41.257 314.542 40.562 314.724 39.365 C 314.916 38.098 314.999 36.77 314.836 35.507 C 314.685 34.342 313.613 33.797 312.54 33.589 C 311.228 33.335 309.887 33.187 308.552 33.096 C 306.012 32.923 303.462 32.891 300.927 32.665 C 299.604 32.547 298.283 32.22 297.002 31.848 C 295.056 31.283 293.786 29.932 293.271 27.998 C 292.584 25.414 292.526 22.78 292.959 20.136 C 293.542 16.57 295.865 14.807 299.231 14.2 C 303.793 13.377 308.402 13.523 312.983 13.895 C 314.662 14.032 316.38 14.607 317.917 15.328 C 320.62 16.596 322.122 19.833 321.681 22.891 L 313.979 22.891 C 313.94 22.843 313.867 22.795 313.861 22.74 C 313.526 19.821 312.774 19.075 309.805 19.069 C 307.623 19.064 305.429 19.147 303.261 19.378 C 301.697 19.545 300.949 20.726 300.669 22.204 C 300.662 22.238 300.663 22.274 300.658 22.309 C 300.258 25.517 301.127 26.532 304.504 26.742 C 307.928 26.955 311.363 27.048 314.776 27.37 C 317.884 27.663 320.713 28.681 322.016 31.861 C 322.526 33.108 322.664 34.506 322.972 35.835 L 322.972 38.588 Z" id="Fill-1" fill="url(#linearGradient-1)"/>
          <path shape-rendering="geometricPrecision" d="M 9.052 19.493 C 13.921 19.493 18.656 19.497 23.392 19.487 C 23.777 19.486 24.168 19.416 24.547 19.336 C 26.302 18.97 27.49 17.994 27.777 16.163 C 27.929 15.195 28.048 14.21 28.056 13.232 C 28.089 8.904 26.883 7.704 22.543 7.695 C 18.371 7.686 14.198 7.692 10.026 7.696 C 9.719 7.696 9.412 7.73 9.052 7.751 L 9.052 19.493 Z M 9.058 39.012 L 10.276 39.012 C 14.2 39.012 18.124 39.025 22.047 39.003 C 23.14 38.997 24.242 38.96 25.323 38.812 C 27.351 38.532 28.701 37.38 28.941 35.513 C 29.141 33.958 29.151 32.358 29.047 30.791 C 28.855 27.926 27.619 26.584 24.722 26.495 C 19.568 26.336 14.407 26.408 9.249 26.388 C 9.196 26.388 9.142 26.463 9.058 26.525 L 9.058 39.012 Z M 0 46.735 L 0 0.074 C 0.233 0.046 -13.081 0.757 0.423 0.356 C 8.875 0.105 17.545 -0.023 26 0.083 C 27.773 0.106 29.607 0.444 31.296 0.993 C 34.483 2.029 36.135 4.498 36.724 7.698 C 37.219 10.386 37.272 13.087 36.87 15.802 C 36.381 19.096 34.563 21.237 31.411 22.282 C 31.146 22.369 30.883 22.464 30.621 22.56 C 30.601 22.567 30.594 22.61 30.563 22.675 C 31.311 22.873 32.063 23.038 32.793 23.27 C 35.393 24.097 37.079 25.838 37.678 28.485 C 38.514 32.183 38.482 35.913 37.568 39.59 C 36.529 43.766 33.544 45.803 29.468 46.418 C 27.937 46.65 26.368 46.716 24.815 46.721 C 16.89 46.75 8.963 46.735 1.037 46.735 C 0.724 46.735 0.41 46.735 0 46.735 Z" id="Fill-3" fill="#000000"/>
          <path shape-rendering="geometricPrecision" d="M 178.361 24.835 C 178.057 22.507 176.933 20.718 174.485 20.086 C 172.188 19.492 169.858 19.492 167.558 19.997 C 166.088 20.32 164.976 21.282 164.626 22.762 C 164.239 24.392 163.905 26.076 163.88 27.741 C 163.838 30.585 163.931 33.444 164.199 36.275 C 164.425 38.653 165.774 40.474 168.228 40.822 C 170.148 41.095 172.169 40.987 174.104 40.733 C 176.354 40.437 177.797 38.966 178.165 36.714 C 178.499 34.674 178.606 26.715 178.361 24.835 M 178.962 18.727 C 178.886 17.173 178.813 15.669 178.737 14.104 L 186.6 14.104 C 186.6 14.492 186.6 14.865 186.6 15.237 C 186.6 25.994 186.656 36.752 186.556 47.508 C 186.534 49.838 186.128 52.207 185.579 54.48 C 184.819 57.622 182.577 59.592 179.507 60.354 C 174.331 61.639 169.063 61.776 163.858 60.575 C 159.591 59.591 157.461 56.753 157.302 52.379 C 157.275 51.652 157.298 50.923 157.298 50.142 L 164.568 50.142 C 164.691 50.895 164.808 51.645 164.936 52.394 C 165.212 54.011 166.299 54.986 167.808 55.057 C 170.26 55.171 172.738 55.088 175.185 54.867 C 177.287 54.677 178.56 53.216 178.695 51.218 C 178.893 48.29 178.746 45.339 178.746 42.49 C 178.092 43.24 177.428 44.135 176.628 44.886 C 175.176 46.25 173.316 46.709 171.399 46.946 C 168.458 47.31 165.514 47.241 162.679 46.381 C 158.673 45.166 156.896 42.064 156.359 38.179 C 155.632 32.915 155.667 27.631 156.473 22.377 C 156.657 21.18 157.107 20.001 157.584 18.877 C 158.52 16.666 160.284 15.301 162.524 14.558 C 166.034 13.394 169.609 13.335 173.18 14.208 C 175.469 14.768 177.263 16.078 178.408 18.187 C 178.507 18.369 178.635 18.535 178.754 18.705 C 178.767 18.722 178.817 18.713 178.962 18.727" id="Fill-5" fill="url(#linearGradient-1)"/>
          <path shape-rendering="geometricPrecision" d="M 261.477 0.044 L 269.222 0.044 L 269.222 26.608 C 270.434 26.91 271.261 26.73 271.995 25.674 C 274.554 22 277.22 18.401 279.821 14.756 C 280.182 14.25 280.553 14.02 281.202 14.03 C 283.806 14.07 286.412 14.046 289.253 14.046 C 285.315 19.271 281.508 24.323 277.662 29.425 C 282.251 35.114 286.828 40.788 291.551 46.644 C 291.06 46.684 290.742 46.731 290.424 46.732 C 287.982 46.738 285.54 46.706 283.098 46.752 C 282.339 46.767 281.872 46.506 281.431 45.907 C 278.313 41.679 275.129 37.499 272.051 33.242 C 271.309 32.217 270.526 31.897 269.269 32.275 L 269.269 46.663 L 261.477 46.663 L 261.477 0.044 Z" id="Fill-8" fill="url(#linearGradient-1)"/>
          <path shape-rendering="geometricPrecision" d="M 125.353 0.046 L 133.093 0.046 L 133.093 26.623 C 134.239 26.857 135.028 26.794 135.764 25.734 C 138.316 22.058 141.017 18.485 143.616 14.84 C 144.064 14.212 144.532 14.016 145.275 14.029 C 147.809 14.073 150.344 14.046 153.093 14.046 C 149.161 19.257 145.352 24.306 141.494 29.419 C 146.089 35.119 150.659 40.788 155.351 46.607 C 154.883 46.668 154.626 46.729 154.369 46.73 C 151.822 46.738 149.273 46.765 146.727 46.707 C 146.278 46.696 145.679 46.435 145.417 46.089 C 142.06 41.644 138.737 37.174 135.444 32.681 C 134.792 31.793 134.013 32.226 133.144 32.186 L 133.144 46.665 L 125.353 46.665 L 125.353 0.046 Z" id="Fill-10" fill="#000000"/>
          <path shape-rendering="geometricPrecision" d="M 234.087 26.762 L 248.997 26.762 C 248.997 24.788 248.723 23.797 248.445 22.394 C 248.166 20.988 247.22 19.997 245.763 19.942 C 243.056 19.84 240.336 19.816 237.634 19.973 C 236.103 20.062 234.881 20.955 234.582 22.597 C 234.338 23.937 234.087 25.052 234.087 26.762 M 256.74 31.908 L 234.042 31.908 C 234.087 34.949 234.341 35.999 234.713 37.947 C 235.036 39.637 236.362 40.684 238.01 40.799 C 240.638 40.981 243.301 41.019 245.924 40.806 C 247.865 40.649 248.571 39.033 248.835 37.272 C 248.876 36.995 248.89 36.714 248.923 36.367 L 256.621 36.367 C 257.128 41.815 254.866 46.235 248.43 46.811 C 243.905 47.215 239.401 47.28 234.897 46.617 C 230.904 46.029 228.135 43.487 227.164 39.384 C 226.13 35.014 226.171 30.572 226.486 26.135 C 226.608 24.423 226.865 22.696 227.29 21.035 C 228.274 17.184 230.953 15.026 234.763 14.294 C 239.563 13.372 244.379 13.356 249.177 14.426 C 252.82 15.238 255.001 17.451 255.911 21.059 C 256.801 24.59 256.717 28.163 256.74 31.908" id="Fill-12" fill="url(#linearGradient-1)"/>
          <path shape-rendering="geometricPrecision" d="M 213.782 26.788 C 213.782 26.03 213.804 25.362 213.776 24.696 C 213.751 24.134 213.703 23.568 213.607 23.014 C 213.274 21.097 212.368 20.027 210.427 19.91 C 207.832 19.754 205.215 19.84 202.613 19.95 C 201.402 20 200.349 20.633 199.842 21.796 C 199.153 23.375 199.175 25.055 199.275 26.788 L 213.782 26.788 Z M 221.906 31.876 C 221.148 31.876 220.73 31.875 220.312 31.875 C 213.662 31.876 207.011 31.889 200.361 31.858 C 199.513 31.854 199.121 32.037 199.217 32.957 C 199.37 34.424 199.387 35.907 199.582 37.367 C 199.832 39.241 200.911 40.603 202.821 40.75 C 205.48 40.956 208.181 41.037 210.832 40.805 C 212.681 40.643 213.562 39.312 213.773 37.432 C 213.812 37.089 213.832 36.745 213.864 36.36 L 221.649 36.36 C 221.769 38.561 221.514 40.639 220.562 42.576 C 219.1 45.554 216.408 46.5 213.349 46.803 C 208.973 47.236 204.608 47.287 200.239 46.66 C 195.808 46.025 192.916 43.414 191.996 39.045 C 191.138 34.971 191.261 30.843 191.433 26.723 C 191.501 25.077 191.684 23.417 192.015 21.805 C 192.752 18.208 194.811 15.671 198.443 14.665 C 203.585 13.24 208.779 13.362 213.974 14.375 C 218.364 15.231 220.52 18.174 221.086 22.351 C 221.505 25.443 221.633 28.574 221.906 31.876 Z" id="Fill-14" fill="url(#linearGradient-1)"/>
          <path shape-rendering="geometricPrecision" d="M 63.885 36.509 C 64.124 38.726 65.17 40.542 67.555 40.775 C 69.952 41.009 72.405 40.953 74.81 40.751 C 76.743 40.589 77.918 39.209 78.218 37.344 C 78.97 32.66 79.022 27.958 78.14 23.278 C 77.815 21.558 76.732 20.418 75.032 20.05 C 72.42 19.484 69.774 19.461 67.162 20.081 C 65.492 20.477 64.4 21.596 64.152 23.265 C 63.339 26.389 63.126 33.926 63.885 36.509 M 56.281 22.159 C 57.104 17.127 59.736 14.764 64.909 14.068 C 69.067 13.509 73.237 13.42 77.378 14.093 C 83.2 15.039 85.632 17.44 86.327 24.048 C 86.804 28.584 86.802 33.133 86.201 37.661 C 86.032 38.939 85.705 40.228 85.236 41.428 C 83.989 44.615 81.35 46.079 78.152 46.597 C 73.479 47.354 68.786 47.287 64.098 46.616 C 60.016 46.033 57.138 43.492 56.425 39.399 C 55.745 35.267 55.269 27.575 56.281 22.159" id="Fill-16" fill="#000000"/>
          <path shape-rendering="geometricPrecision" d="M 120.77 25.449 L 112.861 25.449 C 112.743 24.615 112.633 23.823 112.52 23.032 C 112.289 21.42 111.352 20.352 109.795 20.027 C 107.285 19.502 104.73 19.444 102.218 20.02 C 100.222 20.478 99.498 22.053 99.176 23.89 C 98.591 27.222 98.436 32.971 99.174 36.986 C 99.606 39.339 100.725 40.774 103.119 40.91 C 105.424 41.041 107.763 40.892 110.065 40.656 C 111.527 40.506 112.282 39.364 112.487 37.945 C 112.652 36.801 112.736 35.645 112.866 34.404 L 120.648 34.404 C 120.492 38.368 120.54 42.392 116.854 45.048 C 115.832 45.784 114.527 46.308 113.281 46.524 C 108.511 47.35 103.707 47.373 98.923 46.579 C 95.107 45.945 92.468 43.277 91.707 39.11 C 90.673 33.449 90.672 27.751 91.663 22.081 C 92.42 17.75 95.102 15.112 99.374 14.273 C 104.241 13.317 109.142 13.347 113.998 14.476 C 117.416 15.271 119.431 17.492 120.163 20.846 C 120.483 22.31 120.564 23.826 120.77 25.449" id="Fill-18" fill="#000000"/>
          <polygon id="Fill-20" fill="#000000" points="42.9551774 46.650835 50.7521979 46.650835 50.7521979 0.0529257067 42.9551774 0.0529257067"/>
        </g>
        <g id="Page-1" fill="#24B2FA">
          <path shape-rendering="geometricPrecision" d="M 89.975 0.001 C 89.975 0.001 89.978 47.405 89.972 70.752 C 89.969 78.777 84.291 85.627 76.461 87.061 C 75.497 87.237 74.514 87.301 73.441 87.426 L 73.441 98.585 L 73.441 109.906 C 72.72 109.361 72.083 108.887 71.453 108.4 C 66.248 104.374 44.615 87.335 44.615 87.335 L 0.003 87.332 C 0.003 87.332 -0.006 39.903 0.006 16.535 C 0.009 8.665 5.624 1.809 13.284 0.305 C 14.303 0.104 15.358 0.013 16.395 0.013 C 40.668 -0.002 89.975 0.001 89.975 0.001 Z M 10.147 77.822 L 10.923 77.822 C 31.619 77.822 52.315 77.822 73.014 77.819 C 73.602 77.819 74.199 77.8 74.781 77.712 C 79.289 77.018 82.472 73.257 82.472 68.646 C 82.472 57.213 82.472 45.777 82.466 34.34 C 82.466 33.847 82.424 33.348 82.354 32.858 C 81.857 29.292 78.652 26.458 75.078 26.452 C 68.536 26.44 61.994 26.446 55.449 26.458 C 54.964 26.458 54.467 26.535 53.994 26.653 C 50.366 27.572 48.107 30.509 48.104 34.28 C 48.104 36.291 48.104 38.303 48.104 40.314 C 48.104 40.527 48.104 40.74 48.104 40.972 L 41.871 40.972 C 41.871 40.625 41.874 40.329 41.871 40.031 C 41.847 37.843 41.908 35.649 41.78 33.467 C 41.562 29.666 38.036 26.574 34.293 26.659 C 30.737 26.742 27.178 26.626 23.619 26.69 C 20.081 26.754 16.531 26.376 12.987 26.988 C 12.981 26.912 12.963 26.815 12.963 26.717 C 12.963 24.246 12.963 21.778 12.969 19.307 C 12.969 19.13 12.996 18.951 13.03 18.777 C 13.442 16.559 15.385 15.043 17.686 15.046 C 38.6 15.074 59.515 15.062 80.426 15.062 L 81.266 15.062 L 81.266 9.584 L 80.596 9.584 C 59.19 9.584 37.782 9.581 16.373 9.584 C 16.019 9.584 15.658 9.563 15.306 9.614 C 10.744 10.275 7.506 14.051 7.506 18.704 C 7.503 30.18 7.503 41.656 7.509 53.129 C 7.509 53.726 7.555 54.322 7.628 54.912 C 8.046 58.272 11.314 61.224 14.67 61.236 C 21.154 61.257 27.635 61.248 34.12 61.251 C 34.496 61.251 34.878 61.27 35.244 61.215 C 39.17 60.631 41.871 57.475 41.871 53.485 C 41.871 51.391 41.871 49.301 41.871 47.207 C 41.871 46.994 41.871 46.781 41.871 46.55 L 48.104 46.55 L 48.104 47.247 C 48.104 49.298 48.083 51.352 48.116 53.403 C 48.128 54.069 48.204 54.757 48.374 55.399 C 49.289 58.817 52.263 61.084 55.783 61.084 C 60.842 61.087 65.902 61.105 70.962 61.078 C 72.962 61.066 74.987 61.331 76.97 60.6 C 76.988 60.78 77.012 60.892 77.012 61.008 C 77.015 63.357 77.022 65.71 77.003 68.059 C 77 68.409 76.912 68.765 76.806 69.103 C 76.164 71.169 74.433 72.341 72.038 72.341 C 51.678 72.341 31.319 72.341 10.959 72.341 L 10.147 72.341 L 10.147 77.822 Z" id="Combined-Shape" fill-rule="nonzero"/>
          <path shape-rendering="geometricPrecision" d="M 65.32 31.948 C 62.298 31.948 59.275 31.945 56.253 31.948 C 54.716 31.951 53.549 33.102 53.546 34.645 C 53.537 40.716 53.537 46.79 53.546 52.861 C 53.549 54.441 54.713 55.6 56.286 55.603 C 62.291 55.609 68.297 55.609 74.305 55.603 C 75.876 55.603 77.015 54.438 77.015 52.852 C 77.018 46.781 77.018 40.707 77.015 34.636 C 77.012 33.059 75.903 31.951 74.33 31.948 C 71.325 31.945 68.324 31.948 65.32 31.948 Z" id="Combined-Shape-path"/>
          <path shape-rendering="geometricPrecision" d="M 24.658 55.747 C 27.762 55.747 30.863 55.768 33.967 55.737 C 35.162 55.725 36.141 54.891 36.32 53.708 C 36.453 52.831 36.429 51.924 36.432 51.033 C 36.438 45.655 36.438 40.275 36.432 34.895 C 36.432 33.315 35.356 32.162 33.852 32.162 C 27.744 32.153 21.635 32.153 15.527 32.162 C 14.053 32.165 12.965 33.291 12.962 34.779 C 12.959 40.896 12.959 47.013 12.965 53.129 C 12.965 54.572 13.987 55.716 15.408 55.734 C 18.492 55.774 21.575 55.747 24.658 55.747 Z" id="Combined-Shape-path"/>
        </g>
      </g>
    </g>
  </g>
</svg>